Interstate_Mono-Bold.ufo
<glyph name="exclam" format="1">
  <advance width="600"/>
  <unicode hex="0021"/>
  <outline>
    <contour>
      <point x="252" y="236" type="line"/>
      <point x="223" y="455" type="line"/>
      <point x="223" y="700" type="line"/>
      <point x="377" y="700" type="line"/>
      <point x="377" y="455" type="line"/>
      <point x="348" y="236" type="line"/>
    </contour>
    <contour>
      <point x="300" y="-11" type="curve" smooth="yes"/>
      <point x="249" y="-11"/>
      <point x="212" y="27"/>
      <point x="212" y="77" type="curve" smooth="yes"/>
      <point x="212" y="127"/>
      <point x="249" y="164"/>
      <point x="300" y="164" type="curve" smooth="yes"/>
      <point x="351" y="164"/>
      <point x="388" y="127"/>
      <point x="388" y="77" type="curve" smooth="yes"/>
      <point x="388" y="27"/>
      <point x="351" y="-11"/>
    </contour>
  </outline>
</glyph>
<glyph name="quotedbl" format="1">
  <advance width="600"/>
  <unicode hex="0022"/>
  <outline>
    <contour>
      <point x="368" y="374" type="line"/>
      <point x="340" y="700" type="line"/>
      <point x="506" y="700" type="line"/>
      <point x="478" y="374" type="line"/>
    </contour>
    <contour>
      <point x="122" y="374" type="line"/>
      <point x="94" y="700" type="line"/>
      <point x="260" y="700" type="line"/>
      <point x="232" y="374" type="line"/>
    </contour>
  </outline>
</glyph>
<glyph name="numbersign" format="1">
  <advance width="600"/>
  <unicode hex="0023"/>
  <outline>
    <contour>
      <point x="132" y="0" type="line"/>
      <point x="132" y="152" type="line"/>
      <point x="50" y="152" type="line"/>
      <point x="50" y="260" type="line"/>
      <point x="132" y="260" type="line"/>
      <point x="132" y="440" type="line"/>
      <point x="50" y="440" type="line"/>
      <point x="50" y="548" type="line"/>
      <point x="132" y="548" type="line"/>
      <point x="132" y="700" type="line"/>
      <point x="245" y="700" type="line"/>
      <point x="245" y="548" type="line"/>
      <point x="355" y="548" type="line"/>
      <point x="355" y="700" type="line"/>
      <point x="468" y="700" type="line"/>
      <point x="468" y="548" type="line"/>
      <point x="550" y="548" type="line"/>
      <point x="550" y="440" type="line"/>
      <point x="468" y="440" type="line"/>
      <point x="468" y="260" type="line"/>
      <point x="550" y="260" type="line"/>
      <point x="550" y="152" type="line"/>
      <point x="468" y="152" type="line"/>
      <point x="468" y="0" type="line"/>
      <point x="355" y="0" type="line"/>
      <point x="355" y="152" type="line"/>
      <point x="245" y="152" type="line"/>
      <point x="245" y="0" type="line"/>
    </contour>
    <contour>
      <point x="242" y="258" type="line"/>
      <point x="358" y="258" type="line"/>
      <point x="358" y="443" type="line"/>
      <point x="242" y="443" type="line"/>
    </contour>
  </outline>
</glyph>
<glyph name="dollar" format="1">
  <advance width="600"/>
  <unicode hex="0024"/>
  <outline>
    <contour>
      <point x="371" y="4" type="curve"/>
      <point x="371" y="-92" type="line"/>
      <point x="237" y="-92" type="line"/>
      <point x="237" y="0" type="line"/>
      <point x="161" y="12"/>
      <point x="100" y="48"/>
      <point x="53" y="99" type="curve"/>
      <point x="138" y="196" type="line"/>
      <point x="178" y="155"/>
      <point x="216" y="129"/>
      <point x="257" y="118" type="curve"/>
      <point x="257" y="298" type="line"/>
      <point x="123" y="349"/>
      <point x="70" y="403"/>
      <point x="70" y="511" type="curve" smooth="yes"/>
      <point x="70" y="609"/>
      <point x="133" y="679"/>
      <point x="237" y="699" type="curve"/>
      <point x="237" y="792" type="line"/>
      <point x="371" y="792" type="line"/>
      <point x="371" y="698" type="line"/>
      <point x="437" y="686"/>
      <point x="483" y="658"/>
      <point x="526" y="614" type="curve"/>
      <point x="439" y="515" type="line"/>
      <point x="407" y="548"/>
      <point x="380" y="568"/>
      <point x="350" y="578" type="curve"/>
      <point x="350" y="412" type="line"/>
      <point x="481" y="361"/>
      <point x="536" y="306"/>
      <point x="536" y="198" type="curve" smooth="yes"/>
      <point x="536" y="92"/>
      <point x="471" y="25"/>
    </contour>
    <contour>
      <point x="257" y="449" type="curve"/>
      <point x="257" y="583" type="line"/>
      <point x="224" y="574"/>
      <point x="209" y="551"/>
      <point x="209" y="521" type="curve" smooth="yes"/>
      <point x="209" y="489"/>
      <point x="217" y="470"/>
    </contour>
    <contour>
      <point x="350" y="261" type="curve"/>
      <point x="350" y="121" type="line"/>
      <point x="379" y="132"/>
      <point x="395" y="154"/>
      <point x="395" y="189" type="curve" smooth="yes"/>
      <point x="395" y="220"/>
      <point x="387" y="240"/>
    </contour>
  </outline>
</glyph>
<glyph name="percent" format="1">
  <advance width="600"/>
  <unicode hex="0025"/>
  <outline>
    <contour>
      <point x="138" y="296" type="curve" smooth="yes"/>
      <point x="58" y="296"/>
      <point x="20" y="376"/>
      <point x="20" y="503" type="curve" smooth="yes"/>
      <point x="20" y="630"/>
      <point x="59" y="711"/>
      <point x="139" y="711" type="curve" smooth="yes"/>
      <point x="218" y="711"/>
      <point x="259" y="631"/>
      <point x="259" y="504" type="curve" smooth="yes"/>
      <point x="259" y="377"/>
      <point x="218" y="296"/>
    </contour>
    <contour>
      <point x="124" y="0" type="line"/>
      <point x="406" y="700" type="line"/>
      <point x="477" y="700" type="line"/>
      <point x="194" y="0" type="line"/>
    </contour>
    <contour>
      <point x="458" y="-11" type="curve" smooth="yes"/>
      <point x="378" y="-11"/>
      <point x="340" y="69"/>
      <point x="340" y="196" type="curve" smooth="yes"/>
      <point x="340" y="323"/>
      <point x="380" y="404"/>
      <point x="459" y="404" type="curve" smooth="yes"/>
      <point x="539" y="404"/>
      <point x="580" y="324"/>
      <point x="580" y="197" type="curve" smooth="yes"/>
      <point x="580" y="71"/>
      <point x="538" y="-11"/>
    </contour>
    <contour>
      <point x="139" y="371" type="curve" smooth="yes"/>
      <point x="162" y="371"/>
      <point x="173" y="390"/>
      <point x="173" y="503" type="curve" smooth="yes"/>
      <point x="173" y="615"/>
      <point x="160" y="636"/>
      <point x="138" y="636" type="curve" smooth="yes"/>
      <point x="117" y="636"/>
      <point x="105" y="617"/>
      <point x="105" y="505" type="curve" smooth="yes"/>
      <point x="105" y="392"/>
      <point x="119" y="371"/>
    </contour>
    <contour>
      <point x="460" y="64" type="curve" smooth="yes"/>
      <point x="483" y="64"/>
      <point x="494" y="83"/>
      <point x="494" y="196" type="curve" smooth="yes"/>
      <point x="494" y="308"/>
      <point x="480" y="329"/>
      <point x="459" y="329" type="curve" smooth="yes"/>
      <point x="437" y="329"/>
      <point x="426" y="310"/>
      <point x="426" y="198" type="curve" smooth="yes"/>
      <point x="426" y="86"/>
      <point x="439" y="64"/>
    </contour>
  </outline>
</glyph>
<glyph name="ampersand" format="1">
  <advance width="600"/>
  <unicode hex="0026"/>
  <outline>
    <contour>
      <point x="228" y="-11" type="curve" smooth="yes"/>
      <point x="108" y="-11"/>
      <point x="45" y="59"/>
      <point x="45" y="175" type="curve" smooth="yes"/>
      <point x="45" y="262"/>
      <point x="97" y="332"/>
      <point x="172" y="389" type="curve"/>
      <point x="152" y="420" type="line" smooth="yes"/>
      <point x="124" y="463"/>
      <point x="103" y="505"/>
      <point x="103" y="554" type="curve" smooth="yes"/>
      <point x="103" y="653"/>
      <point x="177" y="711"/>
      <point x="288" y="711" type="curve" smooth="yes"/>
      <point x="375" y="711"/>
      <point x="423" y="682"/>
      <point x="474" y="634" type="curve"/>
      <point x="400" y="537" type="line"/>
      <point x="351" y="583"/>
      <point x="325" y="596"/>
      <point x="285" y="596" type="curve" smooth="yes"/>
      <point x="250" y="596"/>
      <point x="233" y="575"/>
      <point x="233" y="550" type="curve" smooth="yes"/>
      <point x="233" y="525"/>
      <point x="240" y="503"/>
      <point x="258" y="476" type="curve" smooth="yes"/>
      <point x="394" y="272" type="line"/>
      <point x="409" y="306"/>
      <point x="423" y="342"/>
      <point x="437" y="386" type="curve"/>
      <point x="543" y="344" type="line"/>
      <point x="517" y="276"/>
      <point x="492" y="215"/>
      <point x="465" y="166" type="curve"/>
      <point x="576" y="0" type="line"/>
      <point x="431" y="0" type="line"/>
      <point x="391" y="60" type="line"/>
      <point x="345" y="11"/>
      <point x="294" y="-11"/>
    </contour>
    <contour>
      <point x="247" y="101" type="curve" smooth="yes"/>
      <point x="279" y="101"/>
      <point x="304" y="117"/>
      <point x="329" y="152" type="curve"/>
      <point x="233" y="296" type="line"/>
      <point x="193" y="264"/>
      <point x="172" y="231"/>
      <point x="172" y="187" type="curve" smooth="yes"/>
      <point x="172" y="134"/>
      <point x="195" y="101"/>
    </contour>
  </outline>
</glyph>
<glyph name="quotesingle" format="1">
  <advance width="600"/>
  <unicode hex="0027"/>
  <outline>
    <contour>
      <point x="243" y="374" type="line"/>
      <point x="215" y="700" type="line"/>
      <point x="385" y="700" type="line"/>
      <point x="357" y="374" type="line"/>
    </contour>
  </outline>
</glyph>
<glyph name="parenleft" format="1">
  <advance width="600"/>
  <unicode hex="0028"/>
  <outline>
    <contour>
      <point x="379" y="-113" type="line"/>
      <point x="263" y="-23"/>
      <point x="141" y="120"/>
      <point x="141" y="302" type="curve" smooth="yes"/>
      <point x="141" y="495"/>
      <point x="263" y="635"/>
      <point x="379" y="725" type="curve"/>
      <point x="461" y="655" type="line"/>
      <point x="373" y="567"/>
      <point x="297" y="463"/>
      <point x="297" y="308" type="curve" smooth="yes"/>
      <point x="297" y="146"/>
      <point x="373" y="45"/>
      <point x="462" y="-43" type="curve"/>
    </contour>
  </outline>
</glyph>
<glyph name="parenright" format="1">
  <advance width="600"/>
  <unicode hex="0029"/>
  <outline>
    <contour>
      <point x="221" y="-113" type="curve"/>
      <point x="138" y="-43" type="line"/>
      <point x="227" y="45"/>
      <point x="303" y="146"/>
      <point x="303" y="308" type="curve" smooth="yes"/>
      <point x="303" y="463"/>
      <point x="227" y="567"/>
      <point x="139" y="655" type="curve"/>
      <point x="221" y="725" type="line"/>
      <point x="337" y="635"/>
      <point x="459" y="495"/>
      <point x="459" y="302" type="curve" smooth="yes"/>
      <point x="459" y="120"/>
      <point x="337" y="-23"/>
    </contour>
  </outline>
</glyph>
<glyph name="asterisk" format="1">
  <advance width="600"/>
  <unicode hex="002A"/>
  <outline>
    <contour>
      <point x="243" y="256" type="line"/>
      <point x="268" y="424" type="line"/>
      <point x="136" y="319" type="line"/>
      <point x="80" y="417" type="line"/>
      <point x="241" y="478" type="line"/>
      <point x="79" y="540" type="line"/>
      <point x="136" y="639" type="line"/>
      <point x="268" y="532" type="line"/>
      <point x="243" y="700" type="line"/>
      <point x="356" y="700" type="line"/>
      <point x="332" y="533" type="line"/>
      <point x="464" y="639" type="line"/>
      <point x="521" y="541" type="line"/>
      <point x="357" y="479" type="line"/>
      <point x="521" y="416" type="line"/>
      <point x="464" y="317" type="line"/>
      <point x="332" y="422" type="line"/>
      <point x="356" y="256" type="line"/>
    </contour>
  </outline>
</glyph>
<glyph name="plus" format="1">
  <advance width="600"/>
  <unicode hex="002B"/>
  <outline>
    <contour>
      <point x="235" y="101" type="line"/>
      <point x="235" y="283" type="line"/>
      <point x="63" y="283" type="line"/>
      <point x="63" y="405" type="line"/>
      <point x="235" y="405" type="line"/>
      <point x="235" y="587" type="line"/>
      <point x="365" y="587" type="line"/>
      <point x="365" y="405" type="line"/>
      <point x="537" y="405" type="line"/>
      <point x="537" y="283" type="line"/>
      <point x="365" y="283" type="line"/>
      <point x="365" y="101" type="line"/>
    </contour>
  </outline>
</glyph>
<glyph name="comma" format="1">
  <advance width="600"/>
  <unicode hex="002C"/>
  <outline>
    <contour>
      <point x="204" y="-116" type="line"/>
      <point x="222" y="183" type="line"/>
      <point x="404" y="183" type="line"/>
      <point x="307" y="-116" type="line"/>
    </contour>
  </outline>
</glyph>
<glyph name="hyphen" format="1">
  <advance width="600"/>
  <unicode hex="002D"/>
  <unicode hex="2010"/>
  <unicode hex="2011"/>
  <outline>
    <contour>
      <point x="132" y="293" type="line"/>
      <point x="132" y="428" type="line"/>
      <point x="467" y="428" type="line"/>
      <point x="467" y="293" type="line"/>
    </contour>
  </outline>
</glyph>
<glyph name="period" format="1">
  <advance width="600"/>
  <unicode hex="002E"/>
  <outline>
    <contour>
      <point x="299" y="-11" type="curve" smooth="yes"/>
      <point x="238" y="-11"/>
      <point x="193" y="34"/>
      <point x="193" y="93" type="curve" smooth="yes"/>
      <point x="193" y="152"/>
      <point x="238" y="196"/>
      <point x="299" y="196" type="curve" smooth="yes"/>
      <point x="360" y="196"/>
      <point x="406" y="152"/>
      <point x="406" y="93" type="curve" smooth="yes"/>
      <point x="406" y="34"/>
      <point x="360" y="-11"/>
    </contour>
  </outline>
</glyph>
<glyph name="slash" format="1">
  <advance width="600"/>
  <unicode hex="002F"/>
  <outline>
    <contour>
      <point x="37" y="-90" type="line"/>
      <point x="431" y="790" type="line"/>
      <point x="563" y="790" type="line"/>
      <point x="169" y="-90" type="line"/>
    </contour>
  </outline>
</glyph>
<glyph name="zero" format="1">
  <advance width="600"/>
  <unicode hex="0030"/>
  <outline>
    <contour>
      <point x="299" y="-11" type="curve" smooth="yes"/>
      <point x="147" y="-11"/>
      <point x="52" y="112"/>
      <point x="52" y="349" type="curve" smooth="yes"/>
      <point x="52" y="587"/>
      <point x="147" y="711"/>
      <point x="301" y="711" type="curve" smooth="yes"/>
      <point x="454" y="711"/>
      <point x="548" y="588"/>
      <point x="548" y="351" type="curve" smooth="yes"/>
      <point x="548" y="113"/>
      <point x="453" y="-11"/>
    </contour>
    <contour>
      <point x="301" y="110" type="curve" smooth="yes"/>
      <point x="372" y="110"/>
      <point x="406" y="179"/>
      <point x="406" y="349" type="curve" smooth="yes"/>
      <point x="406" y="520"/>
      <point x="372" y="590"/>
      <point x="299" y="590" type="curve" smooth="yes"/>
      <point x="228" y="590"/>
      <point x="194" y="521"/>
      <point x="194" y="351" type="curve" smooth="yes"/>
      <point x="194" y="180"/>
      <point x="229" y="110"/>
    </contour>
  </outline>
</glyph>
<glyph name="one" format="1">
  <advance width="600"/>
  <unicode hex="0031"/>
  <outline>
    <contour>
      <point x="99" y="0" type="line"/>
      <point x="99" y="111" type="line"/>
      <point x="248" y="111" type="line"/>
      <point x="248" y="513" type="line"/>
      <point x="104" y="513" type="line"/>
      <point x="104" y="610" type="line"/>
      <point x="208" y="614"/>
      <point x="253" y="638"/>
      <point x="270" y="700" type="curve"/>
      <point x="387" y="700" type="line"/>
      <point x="387" y="111" type="line"/>
      <point x="523" y="111" type="line"/>
      <point x="523" y="0" type="line"/>
    </contour>
  </outline>
</glyph>
<glyph name="two" format="1">
  <advance width="600"/>
  <unicode hex="0032"/>
  <outline>
    <contour>
      <point x="59" y="0" type="line"/>
      <point x="65" y="211"/>
      <point x="146" y="301"/>
      <point x="283" y="394" type="curve" smooth="yes"/>
      <point x="360" y="447"/>
      <point x="379" y="473"/>
      <point x="379" y="517" type="curve" smooth="yes"/>
      <point x="379" y="564"/>
      <point x="350" y="592"/>
      <point x="297" y="592" type="curve" smooth="yes"/>
      <point x="241" y="592"/>
      <point x="201" y="570"/>
      <point x="150" y="515" type="curve"/>
      <point x="65" y="601" type="line"/>
      <point x="126" y="669"/>
      <point x="192" y="711"/>
      <point x="300" y="711" type="curve" smooth="yes"/>
      <point x="436" y="711"/>
      <point x="515" y="643"/>
      <point x="515" y="527" type="curve" smooth="yes"/>
      <point x="515" y="439"/>
      <point x="479" y="386"/>
      <point x="372" y="312" type="curve" smooth="yes"/>
      <point x="253" y="230"/>
      <point x="220" y="184"/>
      <point x="209" y="119" type="curve"/>
      <point x="519" y="119" type="line"/>
      <point x="519" y="0" type="line"/>
    </contour>
  </outline>
</glyph>
<glyph name="three" format="1">
  <advance width="600"/>
  <unicode hex="0033"/>
  <outline>
    <contour>
      <point x="282" y="-11" type="curve" smooth="yes"/>
      <point x="180" y="-11"/>
      <point x="104" y="35"/>
      <point x="48" y="109" type="curve"/>
      <point x="139" y="189" type="line"/>
      <point x="180" y="136"/>
      <point x="227" y="108"/>
      <point x="285" y="108" type="curve" smooth="yes"/>
      <point x="358" y="108"/>
      <point x="393" y="144"/>
      <point x="393" y="209" type="curve" smooth="yes"/>
      <point x="393" y="278"/>
      <point x="355" y="309"/>
      <point x="280" y="309" type="curve" smooth="yes"/>
      <point x="218" y="309" type="line"/>
      <point x="218" y="423" type="line"/>
      <point x="280" y="423" type="line" smooth="yes"/>
      <point x="344" y="423"/>
      <point x="372" y="454"/>
      <point x="372" y="512" type="curve" smooth="yes"/>
      <point x="372" y="561"/>
      <point x="343" y="594"/>
      <point x="281" y="594" type="curve" smooth="yes"/>
      <point x="229" y="594"/>
      <point x="189" y="571"/>
      <point x="150" y="524" type="curve"/>
      <point x="66" y="605" type="line"/>
      <point x="115" y="665"/>
      <point x="181" y="711"/>
      <point x="285" y="711" type="curve" smooth="yes"/>
      <point x="420" y="711"/>
      <point x="509" y="650"/>
      <point x="509" y="527" type="curve" smooth="yes"/>
      <point x="509" y="443"/>
      <point x="468" y="399"/>
      <point x="417" y="373" type="curve"/>
      <point x="476" y="357"/>
      <point x="531" y="311"/>
      <point x="531" y="209" type="curve" smooth="yes"/>
      <point x="531" y="64"/>
      <point x="435" y="-11"/>
    </contour>
  </outline>
</glyph>
<glyph name="four" format="1">
  <advance width="600"/>
  <unicode hex="0034"/>
  <outline>
    <contour>
      <point x="361" y="0" type="line"/>
      <point x="361" y="147" type="line"/>
      <point x="39" y="147" type="line"/>
      <point x="39" y="248" type="line"/>
      <point x="346" y="700" type="line"/>
      <point x="484" y="700" type="line"/>
      <point x="484" y="260" type="line"/>
      <point x="556" y="260" type="line"/>
      <point x="556" y="144" type="line"/>
      <point x="484" y="144" type="line"/>
      <point x="484" y="0" type="line"/>
    </contour>
    <contour>
      <point x="177" y="259" type="curve"/>
      <point x="177" y="259"/>
      <point x="208" y="260"/>
      <point x="228" y="260" type="curve" smooth="yes"/>
      <point x="361" y="260" type="line"/>
      <point x="361" y="486" type="line" smooth="yes"/>
      <point x="361" y="510"/>
      <point x="362" y="545"/>
      <point x="362" y="547" type="curve"/>
      <point x="356" y="537"/>
      <point x="337" y="501"/>
      <point x="312" y="462" type="curve" smooth="yes"/>
      <point x="235" y="343" type="line" smooth="yes"/>
      <point x="207" y="300"/>
      <point x="184" y="269"/>
    </contour>
  </outline>
</glyph>
<glyph name="five" format="1">
  <advance width="600"/>
  <unicode hex="0035"/>
  <outline>
    <contour>
      <point x="285" y="-11" type="curve" smooth="yes"/>
      <point x="190" y="-11"/>
      <point x="118" y="31"/>
      <point x="61" y="95" type="curve"/>
      <point x="143" y="184" type="line"/>
      <point x="188" y="136"/>
      <point x="234" y="107"/>
      <point x="290" y="107" type="curve" smooth="yes"/>
      <point x="366" y="107"/>
      <point x="397" y="152"/>
      <point x="397" y="235" type="curve" smooth="yes"/>
      <point x="397" y="313"/>
      <point x="366" y="354"/>
      <point x="302" y="354" type="curve" smooth="yes"/>
      <point x="254" y="354"/>
      <point x="228" y="336"/>
      <point x="200" y="306" type="curve"/>
      <point x="83" y="340" type="line"/>
      <point x="104" y="700" type="line"/>
      <point x="500" y="700" type="line"/>
      <point x="500" y="583" type="line"/>
      <point x="218" y="583" type="line"/>
      <point x="208" y="432" type="line"/>
      <point x="238" y="453"/>
      <point x="270" y="468"/>
      <point x="329" y="468" type="curve" smooth="yes"/>
      <point x="458" y="468"/>
      <point x="532" y="387"/>
      <point x="532" y="239" type="curve" smooth="yes"/>
      <point x="532" y="80"/>
      <point x="444" y="-11"/>
    </contour>
  </outline>
</glyph>
<glyph name="six" format="1">
  <advance width="600"/>
  <unicode hex="0036"/>
  <outline>
    <contour>
      <point x="298" y="-11" type="curve" smooth="yes"/>
      <point x="158" y="-11"/>
      <point x="60" y="79"/>
      <point x="60" y="262" type="curve" smooth="yes"/>
      <point x="60" y="467"/>
      <point x="165" y="679"/>
      <point x="445" y="712" type="curve"/>
      <point x="463" y="598" type="line"/>
      <point x="319" y="574"/>
      <point x="234" y="501"/>
      <point x="198" y="392" type="curve"/>
      <point x="232" y="423"/>
      <point x="276" y="444"/>
      <point x="344" y="444" type="curve" smooth="yes"/>
      <point x="462" y="444"/>
      <point x="545" y="370"/>
      <point x="545" y="226" type="curve" smooth="yes"/>
      <point x="545" y="76"/>
      <point x="447" y="-11"/>
    </contour>
    <contour>
      <point x="302" y="104" type="curve" smooth="yes"/>
      <point x="368" y="104"/>
      <point x="409" y="142"/>
      <point x="409" y="217" type="curve" smooth="yes"/>
      <point x="409" y="294"/>
      <point x="371" y="333"/>
      <point x="305" y="333" type="curve" smooth="yes"/>
      <point x="232" y="333"/>
      <point x="195" y="292"/>
      <point x="195" y="217" type="curve" smooth="yes"/>
      <point x="195" y="146"/>
      <point x="233" y="104"/>
    </contour>
  </outline>
</glyph>
<glyph name="seven" format="1">
  <advance width="600"/>
  <unicode hex="0037"/>
  <outline>
    <contour>
      <point x="175" y="0" type="line"/>
      <point x="178" y="234"/>
      <point x="241" y="421"/>
      <point x="371" y="581" type="curve"/>
      <point x="48" y="581" type="line"/>
      <point x="48" y="700" type="line"/>
      <point x="530" y="700" type="line"/>
      <point x="530" y="589" type="line"/>
      <point x="370" y="413"/>
      <point x="314" y="251"/>
      <point x="312" y="0" type="curve"/>
    </contour>
  </outline>
</glyph>
<glyph name="eight" format="1">
  <advance width="600"/>
  <unicode hex="0038"/>
  <outline>
    <contour>
      <point x="299" y="-11" type="curve" smooth="yes"/>
      <point x="147" y="-11"/>
      <point x="51" y="70"/>
      <point x="51" y="208" type="curve" smooth="yes"/>
      <point x="51" y="299"/>
      <point x="101" y="352"/>
      <point x="153" y="377" type="curve"/>
      <point x="109" y="402"/>
      <point x="74" y="448"/>
      <point x="74" y="517" type="curve" smooth="yes"/>
      <point x="74" y="632"/>
      <point x="163" y="711"/>
      <point x="301" y="711" type="curve" smooth="yes"/>
      <point x="441" y="711"/>
      <point x="527" y="631"/>
      <point x="527" y="518" type="curve" smooth="yes"/>
      <point x="527" y="450"/>
      <point x="492" y="407"/>
      <point x="446" y="379" type="curve"/>
      <point x="499" y="354"/>
      <point x="549" y="300"/>
      <point x="549" y="209" type="curve" smooth="yes"/>
      <point x="549" y="69"/>
      <point x="451" y="-11"/>
    </contour>
    <contour>
      <point x="301" y="426" type="curve" smooth="yes"/>
      <point x="363" y="426"/>
      <point x="395" y="466"/>
      <point x="395" y="515" type="curve" smooth="yes"/>
      <point x="395" y="565"/>
      <point x="367" y="603"/>
      <point x="299" y="603" type="curve" smooth="yes"/>
      <point x="232" y="603"/>
      <point x="206" y="566"/>
      <point x="206" y="516" type="curve" smooth="yes"/>
      <point x="206" y="466"/>
      <point x="238" y="426"/>
    </contour>
    <contour>
      <point x="301" y="101" type="curve" smooth="yes"/>
      <point x="377" y="101"/>
      <point x="416" y="141"/>
      <point x="416" y="210" type="curve" smooth="yes"/>
      <point x="416" y="278"/>
      <point x="374" y="321"/>
      <point x="299" y="321" type="curve" smooth="yes"/>
      <point x="224" y="321"/>
      <point x="185" y="278"/>
      <point x="185" y="211" type="curve" smooth="yes"/>
      <point x="185" y="141"/>
      <point x="225" y="101"/>
    </contour>
  </outline>
</glyph>
<glyph name="nine" format="1">
  <advance width="600"/>
  <unicode hex="0039"/>
  <outline>
    <contour>
      <point x="155" y="-12" type="curve"/>
      <point x="137" y="102" type="line"/>
      <point x="282" y="126"/>
      <point x="366" y="199"/>
      <point x="402" y="308" type="curve"/>
      <point x="368" y="277"/>
      <point x="324" y="256"/>
      <point x="257" y="256" type="curve" smooth="yes"/>
      <point x="138" y="256"/>
      <point x="55" y="330"/>
      <point x="55" y="474" type="curve" smooth="yes"/>
      <point x="55" y="624"/>
      <point x="153" y="711"/>
      <point x="302" y="711" type="curve" smooth="yes"/>
      <point x="442" y="711"/>
      <point x="539" y="621"/>
      <point x="539" y="438" type="curve" smooth="yes"/>
      <point x="539" y="233"/>
      <point x="435" y="21"/>
    </contour>
    <contour>
      <point x="295" y="367" type="curve" smooth="yes"/>
      <point x="368" y="367"/>
      <point x="404" y="408"/>
      <point x="404" y="483" type="curve" smooth="yes"/>
      <point x="404" y="554"/>
      <point x="366" y="596"/>
      <point x="297" y="596" type="curve" smooth="yes"/>
      <point x="232" y="596"/>
      <point x="191" y="558"/>
      <point x="191" y="483" type="curve" smooth="yes"/>
      <point x="191" y="406"/>
      <point x="228" y="367"/>
    </contour>
  </outline>
</glyph>
<glyph name="colon" format="1">
  <advance width="600"/>
  <unicode hex="003A"/>
  <outline>
    <contour>
      <point x="299" y="332" type="curve" smooth="yes"/>
      <point x="239" y="332"/>
      <point x="194" y="376"/>
      <point x="194" y="435" type="curve" smooth="yes"/>
      <point x="194" y="493"/>
      <point x="239" y="536"/>
      <point x="299" y="536" type="curve" smooth="yes"/>
      <point x="360" y="536"/>
      <point x="405" y="493"/>
      <point x="405" y="435" type="curve" smooth="yes"/>
      <point x="405" y="376"/>
      <point x="360" y="332"/>
    </contour>
    <contour>
      <point x="299" y="-11" type="curve" smooth="yes"/>
      <point x="239" y="-11"/>
      <point x="194" y="33"/>
      <point x="194" y="92" type="curve" smooth="yes"/>
      <point x="194" y="150"/>
      <point x="239" y="193"/>
      <point x="299" y="193" type="curve" smooth="yes"/>
      <point x="360" y="193"/>
      <point x="405" y="150"/>
      <point x="405" y="92" type="curve" smooth="yes"/>
      <point x="405" y="33"/>
      <point x="360" y="-11"/>
    </contour>
  </outline>
</glyph>
<glyph name="semicolon" format="1">
  <advance width="600"/>
  <unicode hex="003B"/>
  <outline>
    <contour>
      <point x="299" y="332" type="curve" smooth="yes"/>
      <point x="239" y="332"/>
      <point x="194" y="376"/>
      <point x="194" y="435" type="curve" smooth="yes"/>
      <point x="194" y="493"/>
      <point x="239" y="536"/>
      <point x="299" y="536" type="curve" smooth="yes"/>
      <point x="359" y="536"/>
      <point x="405" y="493"/>
      <point x="405" y="435" type="curve" smooth="yes"/>
      <point x="405" y="376"/>
      <point x="359" y="332"/>
    </contour>
    <contour>
      <point x="187" y="-116" type="line"/>
      <point x="205" y="183" type="line"/>
      <point x="387" y="183" type="line"/>
      <point x="291" y="-116" type="line"/>
    </contour>
  </outline>
</glyph>
<glyph name="less" format="1">
  <advance width="600"/>
  <unicode hex="003C"/>
  <outline>
    <contour>
      <point x="483" y="15" type="line"/>
      <point x="113" y="295" type="line"/>
      <point x="113" y="393" type="line"/>
      <point x="483" y="674" type="line"/>
      <point x="483" y="510" type="line"/>
      <point x="252" y="346" type="line"/>
      <point x="483" y="182" type="line"/>
    </contour>
  </outline>
</glyph>
<glyph name="equal" format="1">
  <advance width="600"/>
  <unicode hex="003D"/>
  <outline>
    <contour>
      <point x="86" y="395" type="line"/>
      <point x="86" y="517" type="line"/>
      <point x="514" y="517" type="line"/>
      <point x="514" y="395" type="line"/>
    </contour>
    <contour>
      <point x="86" y="155" type="line"/>
      <point x="86" y="277" type="line"/>
      <point x="514" y="277" type="line"/>
      <point x="514" y="155" type="line"/>
    </contour>
  </outline>
</glyph>
<glyph name="greater" format="1">
  <advance width="600"/>
  <unicode hex="003E"/>
  <outline>
    <contour>
      <point x="117" y="15" type="line"/>
      <point x="117" y="179" type="line"/>
      <point x="348" y="343" type="line"/>
      <point x="117" y="507" type="line"/>
      <point x="117" y="674" type="line"/>
      <point x="487" y="393" type="line"/>
      <point x="487" y="295" type="line"/>
    </contour>
  </outline>
</glyph>
<glyph name="question" format="1">
  <advance width="600"/>
  <unicode hex="003F"/>
  <outline>
    <contour>
      <point x="209" y="236" type="line"/>
      <point x="209" y="325"/>
      <point x="231" y="376"/>
      <point x="330" y="430" type="curve" smooth="yes"/>
      <point x="375" y="455"/>
      <point x="398" y="475"/>
      <point x="398" y="515" type="curve" smooth="yes"/>
      <point x="398" y="558"/>
      <point x="366" y="589"/>
      <point x="301" y="589" type="curve" smooth="yes"/>
      <point x="229" y="589"/>
      <point x="173" y="561"/>
      <point x="120" y="518" type="curve"/>
      <point x="47" y="621" type="line"/>
      <point x="114" y="674"/>
      <point x="198" y="711"/>
      <point x="304" y="711" type="curve" smooth="yes"/>
      <point x="451" y="711"/>
      <point x="541" y="647"/>
      <point x="541" y="528" type="curve" smooth="yes"/>
      <point x="541" y="440"/>
      <point x="496" y="398"/>
      <point x="421" y="356" type="curve" smooth="yes"/>
      <point x="362" y="322"/>
      <point x="344" y="293"/>
      <point x="344" y="236" type="curve"/>
    </contour>
    <contour>
      <point x="277" y="-11" type="curve" smooth="yes"/>
      <point x="226" y="-11"/>
      <point x="188" y="27"/>
      <point x="188" y="77" type="curve" smooth="yes"/>
      <point x="188" y="127"/>
      <point x="226" y="164"/>
      <point x="277" y="164" type="curve" smooth="yes"/>
      <point x="328" y="164"/>
      <point x="364" y="127"/>
      <point x="364" y="77" type="curve" smooth="yes"/>
      <point x="364" y="27"/>
      <point x="328" y="-11"/>
    </contour>
  </outline>
</glyph>
<glyph name="at" format="1">
  <advance width="600"/>
  <unicode hex="0040"/>
  <outline>
    <contour>
      <point x="301" y="-11" type="curve" smooth="yes"/>
      <point x="142" y="-11"/>
      <point x="41" y="129"/>
      <point x="41" y="350" type="curve" smooth="yes"/>
      <point x="41" y="569"/>
      <point x="141" y="711"/>
      <point x="301" y="711" type="curve" smooth="yes"/>
      <point x="461" y="711"/>
      <point x="559" y="562"/>
      <point x="559" y="360" type="curve" smooth="yes"/>
      <point x="559" y="208"/>
      <point x="516" y="154"/>
      <point x="447" y="154" type="curve" smooth="yes"/>
      <point x="407" y="154"/>
      <point x="382" y="170"/>
      <point x="365" y="194" type="curve"/>
      <point x="338" y="167"/>
      <point x="315" y="152"/>
      <point x="275" y="152" type="curve" smooth="yes"/>
      <point x="215" y="152"/>
      <point x="176" y="196"/>
      <point x="176" y="284" type="curve" smooth="yes"/>
      <point x="176" y="371"/>
      <point x="215" y="415"/>
      <point x="276" y="415" type="curve" smooth="yes"/>
      <point x="304" y="415"/>
      <point x="322" y="410"/>
      <point x="339" y="397" type="curve"/>
      <point x="339" y="445" type="line" smooth="yes"/>
      <point x="339" y="479"/>
      <point x="328" y="493"/>
      <point x="293" y="493" type="curve" smooth="yes"/>
      <point x="269" y="493"/>
      <point x="248" y="486"/>
      <point x="221" y="468" type="curve"/>
      <point x="194" y="524" type="line"/>
      <point x="227" y="547"/>
      <point x="263" y="561"/>
      <point x="304" y="561" type="curve" smooth="yes"/>
      <point x="373" y="561"/>
      <point x="410" y="529"/>
      <point x="410" y="451" type="curve" smooth="yes"/>
      <point x="410" y="270" type="line" smooth="yes"/>
      <point x="410" y="228"/>
      <point x="420" y="207"/>
      <point x="450" y="207" type="curve" smooth="yes"/>
      <point x="484" y="207"/>
      <point x="501" y="244"/>
      <point x="501" y="361" type="curve" smooth="yes"/>
      <point x="501" y="548"/>
      <point x="421" y="657"/>
      <point x="301" y="657" type="curve" smooth="yes"/>
      <point x="171" y="657"/>
      <point x="99" y="541"/>
      <point x="99" y="351" type="curve" smooth="yes"/>
      <point x="99" y="158"/>
      <point x="173" y="43"/>
      <point x="302" y="43" type="curve" smooth="yes"/>
      <point x="338" y="43"/>
      <point x="371" y="55"/>
      <point x="398" y="72" type="curve"/>
      <point x="423" y="25" type="line"/>
      <point x="386" y="2"/>
      <point x="345" y="-11"/>
    </contour>
    <contour>
      <point x="290" y="219" type="curve" smooth="yes"/>
      <point x="310" y="219"/>
      <point x="328" y="230"/>
      <point x="339" y="243" type="curve"/>
      <point x="339" y="339" type="line"/>
      <point x="327" y="347"/>
      <point x="312" y="352"/>
      <point x="291" y="352" type="curve" smooth="yes"/>
      <point x="262" y="352"/>
      <point x="247" y="332"/>
      <point x="247" y="285" type="curve" smooth="yes"/>
      <point x="247" y="240"/>
      <point x="261" y="219"/>
    </contour>
  </outline>
</glyph>
<glyph name="A" format="1">
  <advance width="600"/>
  <unicode hex="0041"/>
  <outline>
    <contour>
      <point x="39" y="0" type="line"/>
      <point x="228" y="700" type="line"/>
      <point x="373" y="700" type="line"/>
      <point x="561" y="0" type="line"/>
      <point x="418" y="0" type="line"/>
      <point x="384" y="144" type="line"/>
      <point x="212" y="144" type="line"/>
      <point x="179" y="0" type="line"/>
    </contour>
    <contour>
      <point x="236" y="260" type="line"/>
      <point x="360" y="260" type="line"/>
      <point x="338" y="345" type="line" smooth="yes"/>
      <point x="315" y="433"/>
      <point x="307" y="515"/>
      <point x="298" y="575" type="curve"/>
      <point x="289" y="515"/>
      <point x="279" y="433"/>
      <point x="257" y="344" type="curve" smooth="yes"/>
    </contour>
  </outline>
</glyph>
<glyph name="B" format="1">
  <advance width="600"/>
  <unicode hex="0042"/>
  <outline>
    <contour>
      <point x="78" y="0" type="line"/>
      <point x="78" y="700" type="line"/>
      <point x="328" y="700" type="line" smooth="yes"/>
      <point x="461" y="700"/>
      <point x="529" y="638"/>
      <point x="529" y="518" type="curve" smooth="yes"/>
      <point x="529" y="441"/>
      <point x="492" y="401"/>
      <point x="442" y="375" type="curve"/>
      <point x="501" y="352"/>
      <point x="546" y="305"/>
      <point x="546" y="212" type="curve" smooth="yes"/>
      <point x="546" y="74"/>
      <point x="471" y="0"/>
      <point x="324" y="0" type="curve" smooth="yes"/>
    </contour>
    <contour>
      <point x="216" y="422" type="line"/>
      <point x="316" y="422" type="line" smooth="yes"/>
      <point x="369" y="422"/>
      <point x="392" y="454"/>
      <point x="392" y="506" type="curve" smooth="yes"/>
      <point x="392" y="559"/>
      <point x="368" y="586"/>
      <point x="317" y="586" type="curve" smooth="yes"/>
      <point x="216" y="586" type="line"/>
    </contour>
    <contour>
      <point x="216" y="114" type="line"/>
      <point x="321" y="114" type="line" smooth="yes"/>
      <point x="381" y="114"/>
      <point x="408" y="146"/>
      <point x="408" y="212" type="curve" smooth="yes"/>
      <point x="408" y="279"/>
      <point x="376" y="311"/>
      <point x="319" y="311" type="curve" smooth="yes"/>
      <point x="216" y="311" type="line"/>
    </contour>
  </outline>
</glyph>
<glyph name="C" format="1">
  <advance width="600"/>
  <unicode hex="0043"/>
  <outline>
    <contour>
      <point x="315" y="-11" type="curve" smooth="yes"/>
      <point x="145" y="-11"/>
      <point x="55" y="124"/>
      <point x="55" y="349" type="curve" smooth="yes"/>
      <point x="55" y="581"/>
      <point x="156" y="711"/>
      <point x="317" y="711" type="curve" smooth="yes"/>
      <point x="449" y="711"/>
      <point x="507" y="643"/>
      <point x="545" y="527" type="curve"/>
      <point x="416" y="480" type="line"/>
      <point x="391" y="554"/>
      <point x="370" y="587"/>
      <point x="316" y="587" type="curve" smooth="yes"/>
      <point x="239" y="587"/>
      <point x="199" y="514"/>
      <point x="199" y="351" type="curve" smooth="yes"/>
      <point x="199" y="187"/>
      <point x="240" y="113"/>
      <point x="318" y="113" type="curve" smooth="yes"/>
      <point x="371" y="113"/>
      <point x="396" y="146"/>
      <point x="425" y="218" type="curve"/>
      <point x="547" y="163" type="line"/>
      <point x="509" y="61"/>
      <point x="445" y="-11"/>
    </contour>
  </outline>
</glyph>
<glyph name="E" format="1">
  <advance width="600"/>
  <unicode hex="0045"/>
  <outline>
    <contour>
      <point x="83" y="0" type="line"/>
      <point x="83" y="700" type="line"/>
      <point x="530" y="700" type="line"/>
      <point x="530" y="577" type="line"/>
      <point x="227" y="577" type="line"/>
      <point x="227" y="429" type="line"/>
      <point x="417" y="429" type="line"/>
      <point x="417" y="306" type="line"/>
      <point x="227" y="306" type="line"/>
      <point x="227" y="123" type="line"/>
      <point x="540" y="123" type="line"/>
      <point x="540" y="0" type="line"/>
    </contour>
  </outline>
</glyph>
<glyph name="F" format="1">
  <advance width="600"/>
  <unicode hex="0046"/>
  <outline>
    <contour>
      <point x="85" y="0" type="line"/>
      <point x="85" y="700" type="line"/>
      <point x="551" y="700" type="line"/>
      <point x="551" y="577" type="line"/>
      <point x="229" y="577" type="line"/>
      <point x="229" y="421" type="line"/>
      <point x="432" y="421" type="line"/>
      <point x="432" y="298" type="line"/>
      <point x="229" y="298" type="line"/>
      <point x="229" y="0" type="line"/>
    </contour>
  </outline>
</glyph>
<glyph name="G" format="1">
  <advance width="600"/>
  <unicode hex="0047"/>
  <outline>
    <contour>
      <point x="306" y="-11" type="curve" smooth="yes"/>
      <point x="147" y="-11"/>
      <point x="52" y="118"/>
      <point x="52" y="350" type="curve" smooth="yes"/>
      <point x="52" y="574"/>
      <point x="142" y="711"/>
      <point x="308" y="711" type="curve" smooth="yes"/>
      <point x="439" y="711"/>
      <point x="495" y="645"/>
      <point x="530" y="531" type="curve"/>
      <point x="402" y="485" type="line"/>
      <point x="380" y="558"/>
      <point x="358" y="590"/>
      <point x="307" y="590" type="curve" smooth="yes"/>
      <point x="231" y="590"/>
      <point x="195" y="514"/>
      <point x="195" y="350" type="curve" smooth="yes"/>
      <point x="195" y="177"/>
      <point x="236" y="107"/>
      <point x="313" y="107" type="curve" smooth="yes"/>
      <point x="385" y="107"/>
      <point x="414" y="152"/>
      <point x="414" y="232" type="curve" smooth="yes"/>
      <point x="414" y="259" type="line"/>
      <point x="321" y="259" type="line"/>
      <point x="321" y="368" type="line"/>
      <point x="546" y="368" type="line"/>
      <point x="546" y="266" type="line" smooth="yes"/>
      <point x="546" y="93"/>
      <point x="464" y="-11"/>
    </contour>
  </outline>
</glyph>
<glyph name="H" format="1">
  <advance width="600"/>
  <unicode hex="0048"/>
  <outline>
    <contour>
      <point x="69" y="0" type="line"/>
      <point x="69" y="700" type="line"/>
      <point x="212" y="700" type="line"/>
      <point x="212" y="433" type="line"/>
      <point x="388" y="433" type="line"/>
      <point x="388" y="700" type="line"/>
      <point x="531" y="700" type="line"/>
      <point x="531" y="0" type="line"/>
      <point x="388" y="0" type="line"/>
      <point x="388" y="301" type="line"/>
      <point x="212" y="301" type="line"/>
      <point x="212" y="0" type="line"/>
    </contour>
  </outline>
</glyph>
<glyph name="I" format="1">
  <advance width="600"/>
  <unicode hex="0049"/>
  <outline>
    <contour>
      <point x="127" y="0" type="line"/>
      <point x="127" y="110" type="line"/>
      <point x="228" y="110" type="line"/>
      <point x="228" y="590" type="line"/>
      <point x="127" y="590" type="line"/>
      <point x="127" y="700" type="line"/>
      <point x="473" y="700" type="line"/>
      <point x="473" y="590" type="line"/>
      <point x="371" y="590" type="line"/>
      <point x="371" y="110" type="line"/>
      <point x="473" y="110" type="line"/>
      <point x="473" y="0" type="line"/>
    </contour>
  </outline>
</glyph>
<glyph name="J" format="1">
  <advance width="600"/>
  <unicode hex="004A"/>
  <outline>
    <contour>
      <point x="275" y="-11" type="curve" smooth="yes"/>
      <point x="135" y="-11"/>
      <point x="67" y="71"/>
      <point x="38" y="194" type="curve"/>
      <point x="168" y="230" type="line"/>
      <point x="189" y="154"/>
      <point x="217" y="113"/>
      <point x="278" y="113" type="curve" smooth="yes"/>
      <point x="349" y="113"/>
      <point x="378" y="157"/>
      <point x="378" y="246" type="curve" smooth="yes"/>
      <point x="378" y="700" type="line"/>
      <point x="521" y="700" type="line"/>
      <point x="521" y="256" type="line" smooth="yes"/>
      <point x="521" y="84"/>
      <point x="442" y="-11"/>
    </contour>
  </outline>
</glyph>
<glyph name="K" format="1">
  <advance width="600"/>
  <unicode hex="004B"/>
  <outline>
    <contour>
      <point x="71" y="0" type="line"/>
      <point x="71" y="700" type="line"/>
      <point x="215" y="700" type="line"/>
      <point x="215" y="551" type="line" smooth="yes"/>
      <point x="215" y="494"/>
      <point x="214" y="433"/>
      <point x="212" y="391" type="curve"/>
      <point x="234" y="437"/>
      <point x="268" y="511"/>
      <point x="305" y="568" type="curve" smooth="yes"/>
      <point x="392" y="700" type="line"/>
      <point x="548" y="700" type="line"/>
      <point x="380" y="442" type="line"/>
      <point x="561" y="0" type="line"/>
      <point x="406" y="0" type="line"/>
      <point x="279" y="315" type="line"/>
      <point x="215" y="220" type="line"/>
      <point x="215" y="0" type="line"/>
    </contour>
  </outline>
</glyph>
<glyph name="L" format="1">
  <advance width="600"/>
  <unicode hex="004C"/>
  <outline>
    <contour>
      <point x="88" y="0" type="line"/>
      <point x="88" y="700" type="line"/>
      <point x="231" y="700" type="line"/>
      <point x="231" y="123" type="line"/>
      <point x="537" y="123" type="line"/>
      <point x="537" y="0" type="line"/>
    </contour>
  </outline>
</glyph>
<glyph name="M" format="1">
  <advance width="600"/>
  <unicode hex="004D"/>
  <outline>
    <contour>
      <point x="300" y="-14" type="line"/>
      <point x="224" y="233" type="line" smooth="yes"/>
      <point x="202" y="305"/>
      <point x="185" y="371"/>
      <point x="173" y="423" type="curve"/>
      <point x="175" y="372"/>
      <point x="176" y="305"/>
      <point x="176" y="239" type="curve" smooth="yes"/>
      <point x="176" y="0" type="line"/>
      <point x="59" y="0" type="line"/>
      <point x="59" y="700" type="line"/>
      <point x="183" y="700" type="line"/>
      <point x="252" y="466" type="line" smooth="yes"/>
      <point x="275" y="389"/>
      <point x="292" y="324"/>
      <point x="300" y="272" type="curve"/>
      <point x="310" y="324"/>
      <point x="327" y="389"/>
      <point x="349" y="466" type="curve" smooth="yes"/>
      <point x="417" y="700" type="line"/>
      <point x="541" y="700" type="line"/>
      <point x="541" y="0" type="line"/>
      <point x="424" y="0" type="line"/>
      <point x="424" y="239" type="line" smooth="yes"/>
      <point x="424" y="304"/>
      <point x="425" y="371"/>
      <point x="427" y="423" type="curve"/>
      <point x="416" y="371"/>
      <point x="397" y="305"/>
      <point x="375" y="233" type="curve" smooth="yes"/>
    </contour>
  </outline>
</glyph>
<glyph name="N" format="1">
  <advance width="600"/>
  <unicode hex="004E"/>
  <outline>
    <contour>
      <point x="73" y="0" type="line"/>
      <point x="73" y="700" type="line"/>
      <point x="194" y="700" type="line"/>
      <point x="323" y="447" type="line" smooth="yes"/>
      <point x="359" y="376"/>
      <point x="393" y="301"/>
      <point x="407" y="264" type="curve"/>
      <point x="404" y="296"/>
      <point x="403" y="379"/>
      <point x="403" y="436" type="curve" smooth="yes"/>
      <point x="403" y="700" type="line"/>
      <point x="526" y="700" type="line"/>
      <point x="526" y="0" type="line"/>
      <point x="417" y="0" type="line"/>
      <point x="275" y="284" type="line" smooth="yes"/>
      <point x="240" y="353"/>
      <point x="208" y="424"/>
      <point x="193" y="463" type="curve"/>
      <point x="196" y="430"/>
      <point x="197" y="355"/>
      <point x="197" y="294" type="curve" smooth="yes"/>
      <point x="197" y="0" type="line"/>
    </contour>
  </outline>
</glyph>
<glyph name="O" format="1">
  <advance width="600"/>
  <unicode hex="004F"/>
  <outline>
    <contour>
      <point x="299" y="-11" type="curve" smooth="yes"/>
      <point x="145" y="-11"/>
      <point x="50" y="111"/>
      <point x="50" y="349" type="curve" smooth="yes"/>
      <point x="50" y="587"/>
      <point x="146" y="711"/>
      <point x="301" y="711" type="curve" smooth="yes"/>
      <point x="455" y="711"/>
      <point x="550" y="588"/>
      <point x="550" y="351" type="curve" smooth="yes"/>
      <point x="550" y="113"/>
      <point x="453" y="-11"/>
    </contour>
    <contour>
      <point x="301" y="113" type="curve" smooth="yes"/>
      <point x="370" y="113"/>
      <point x="406" y="173"/>
      <point x="406" y="349" type="curve" smooth="yes"/>
      <point x="406" y="526"/>
      <point x="368" y="587"/>
      <point x="299" y="587" type="curve" smooth="yes"/>
      <point x="229" y="587"/>
      <point x="194" y="527"/>
      <point x="194" y="351" type="curve" smooth="yes"/>
      <point x="194" y="174"/>
      <point x="232" y="113"/>
    </contour>
  </outline>
</glyph>
<glyph name="P" format="1">
  <advance width="600"/>
  <unicode hex="0050"/>
  <outline>
    <contour>
      <point x="77" y="0" type="line"/>
      <point x="77" y="700" type="line"/>
      <point x="325" y="700" type="line" smooth="yes"/>
      <point x="457" y="700"/>
      <point x="553" y="640"/>
      <point x="553" y="484" type="curve" smooth="yes"/>
      <point x="553" y="325"/>
      <point x="452" y="258"/>
      <point x="313" y="258" type="curve" smooth="yes"/>
      <point x="220" y="258" type="line"/>
      <point x="220" y="0" type="line"/>
    </contour>
    <contour>
      <point x="220" y="375" type="line"/>
      <point x="312" y="375" type="line" smooth="yes"/>
      <point x="380" y="375"/>
      <point x="409" y="409"/>
      <point x="409" y="480" type="curve" smooth="yes"/>
      <point x="409" y="549"/>
      <point x="382" y="583"/>
      <point x="317" y="583" type="curve" smooth="yes"/>
      <point x="220" y="583" type="line"/>
    </contour>
  </outline>
</glyph>
<glyph name="Q" format="1">
  <advance width="600"/>
  <unicode hex="0051"/>
  <outline>
    <contour>
      <point x="467" y="-54" type="line"/>
      <point x="409" y="15" type="line"/>
      <point x="377" y="-2"/>
      <point x="340" y="-11"/>
      <point x="299" y="-11" type="curve" smooth="yes"/>
      <point x="145" y="-11"/>
      <point x="50" y="111"/>
      <point x="50" y="349" type="curve" smooth="yes"/>
      <point x="50" y="587"/>
      <point x="146" y="711"/>
      <point x="301" y="711" type="curve" smooth="yes"/>
      <point x="455" y="711"/>
      <point x="550" y="588"/>
      <point x="550" y="351" type="curve" smooth="yes"/>
      <point x="550" y="234"/>
      <point x="527" y="144"/>
      <point x="484" y="84" type="curve"/>
      <point x="544" y="14" type="line"/>
    </contour>
    <contour>
      <point x="301" y="106" type="curve" smooth="yes"/>
      <point x="310" y="106"/>
      <point x="317" y="108"/>
      <point x="324" y="110" type="curve"/>
      <point x="265" y="182" type="line"/>
      <point x="340" y="249" type="line"/>
      <point x="387" y="192" type="line"/>
      <point x="400" y="228"/>
      <point x="407" y="280"/>
      <point x="407" y="349" type="curve" smooth="yes"/>
      <point x="407" y="526"/>
      <point x="368" y="587"/>
      <point x="299" y="587" type="curve" smooth="yes"/>
      <point x="229" y="587"/>
      <point x="193" y="527"/>
      <point x="193" y="351" type="curve" smooth="yes"/>
      <point x="193" y="174"/>
      <point x="232" y="106"/>
    </contour>
  </outline>
</glyph>
<glyph name="R" format="1">
  <advance width="600"/>
  <unicode hex="0052"/>
  <outline>
    <contour>
      <point x="74" y="0" type="line"/>
      <point x="74" y="700" type="line"/>
      <point x="322" y="700" type="line" smooth="yes"/>
      <point x="448" y="700"/>
      <point x="540" y="641"/>
      <point x="540" y="492" type="curve" smooth="yes"/>
      <point x="540" y="397"/>
      <point x="496" y="335"/>
      <point x="428" y="304" type="curve"/>
      <point x="545" y="0" type="line"/>
      <point x="396" y="0" type="line"/>
      <point x="294" y="277" type="line"/>
      <point x="217" y="277" type="line"/>
      <point x="217" y="0" type="line"/>
    </contour>
    <contour>
      <point x="217" y="389" type="line"/>
      <point x="310" y="389" type="line" smooth="yes"/>
      <point x="374" y="389"/>
      <point x="401" y="421"/>
      <point x="401" y="488" type="curve" smooth="yes"/>
      <point x="401" y="554"/>
      <point x="375" y="585"/>
      <point x="314" y="585" type="curve" smooth="yes"/>
      <point x="217" y="585" type="line"/>
    </contour>
  </outline>
</glyph>
<glyph name="S" format="1">
  <advance width="600"/>
  <unicode hex="0053"/>
  <outline>
    <contour>
      <point x="298" y="-11" type="curve" smooth="yes"/>
      <point x="193" y="-11"/>
      <point x="114" y="31"/>
      <point x="54" y="96" type="curve"/>
      <point x="142" y="194" type="line"/>
      <point x="191" y="144"/>
      <point x="245" y="112"/>
      <point x="301" y="112" type="curve" smooth="yes"/>
      <point x="363" y="112"/>
      <point x="396" y="139"/>
      <point x="396" y="185" type="curve" smooth="yes"/>
      <point x="396" y="230"/>
      <point x="376" y="255"/>
      <point x="276" y="293" type="curve" smooth="yes"/>
      <point x="130" y="349"/>
      <point x="72" y="399"/>
      <point x="72" y="513" type="curve" smooth="yes"/>
      <point x="72" y="629"/>
      <point x="160" y="711"/>
      <point x="300" y="711" type="curve" smooth="yes"/>
      <point x="408" y="711"/>
      <point x="471" y="675"/>
      <point x="528" y="618" type="curve"/>
      <point x="440" y="517" type="line"/>
      <point x="389" y="566"/>
      <point x="352" y="588"/>
      <point x="294" y="588" type="curve" smooth="yes"/>
      <point x="236" y="588"/>
      <point x="212" y="559"/>
      <point x="212" y="523" type="curve" smooth="yes"/>
      <point x="212" y="480"/>
      <point x="234" y="459"/>
      <point x="329" y="422" type="curve" smooth="yes"/>
      <point x="479" y="364"/>
      <point x="538" y="310"/>
      <point x="538" y="195" type="curve" smooth="yes"/>
      <point x="538" y="65"/>
      <point x="440" y="-11"/>
    </contour>
  </outline>
</glyph>
<glyph name="T" format="1">
  <advance width="600"/>
  <unicode hex="0054"/>
  <outline>
    <contour>
      <point x="229" y="0" type="line"/>
      <point x="229" y="577" type="line"/>
      <point x="51" y="577" type="line"/>
      <point x="51" y="700" type="line"/>
      <point x="549" y="700" type="line"/>
      <point x="549" y="577" type="line"/>
      <point x="371" y="577" type="line"/>
      <point x="371" y="0" type="line"/>
    </contour>
  </outline>
</glyph>
<glyph name="U" format="1">
  <advance width="600"/>
  <unicode hex="0055"/>
  <outline>
    <contour>
      <point x="299" y="-11" type="curve" smooth="yes"/>
      <point x="157" y="-11"/>
      <point x="68" y="75"/>
      <point x="68" y="243" type="curve" smooth="yes"/>
      <point x="68" y="700" type="line"/>
      <point x="211" y="700" type="line"/>
      <point x="211" y="241" type="line" smooth="yes"/>
      <point x="211" y="156"/>
      <point x="238" y="116"/>
      <point x="302" y="116" type="curve" smooth="yes"/>
      <point x="366" y="116"/>
      <point x="389" y="155"/>
      <point x="389" y="240" type="curve" smooth="yes"/>
      <point x="389" y="700" type="line"/>
      <point x="532" y="700" type="line"/>
      <point x="532" y="246" type="line" smooth="yes"/>
      <point x="532" y="74"/>
      <point x="443" y="-11"/>
    </contour>
  </outline>
</glyph>
<glyph name="V" format="1">
  <advance width="600"/>
  <unicode hex="0056"/>
  <outline>
    <contour>
      <point x="231" y="0" type="line"/>
      <point x="41" y="700" type="line"/>
      <point x="190" y="700" type="line"/>
      <point x="258" y="411" type="line" smooth="yes"/>
      <point x="276" y="333"/>
      <point x="295" y="213"/>
      <point x="303" y="153" type="curve"/>
      <point x="310" y="213"/>
      <point x="329" y="332"/>
      <point x="347" y="411" type="curve" smooth="yes"/>
      <point x="414" y="700" type="line"/>
      <point x="559" y="700" type="line"/>
      <point x="369" y="0" type="line"/>
    </contour>
  </outline>
</glyph>
<glyph name="W" format="1">
  <advance width="600"/>
  <unicode hex="0057"/>
  <outline>
    <contour>
      <point x="110" y="0" type="line"/>
      <point x="16" y="700" type="line"/>
      <point x="141" y="700" type="line"/>
      <point x="169" y="473" type="line" smooth="yes"/>
      <point x="178" y="403"/>
      <point x="184" y="260"/>
      <point x="187" y="185" type="curve"/>
      <point x="192" y="259"/>
      <point x="202" y="403"/>
      <point x="212" y="473" type="curve" smooth="yes"/>
      <point x="245" y="700" type="line"/>
      <point x="354" y="700" type="line"/>
      <point x="389" y="473" type="line" smooth="yes"/>
      <point x="400" y="401"/>
      <point x="409" y="259"/>
      <point x="414" y="185" type="curve"/>
      <point x="418" y="259"/>
      <point x="424" y="403"/>
      <point x="432" y="473" type="curve" smooth="yes"/>
      <point x="459" y="700" type="line"/>
      <point x="585" y="700" type="line"/>
      <point x="490" y="0" type="line"/>
      <point x="361" y="0" type="line"/>
      <point x="332" y="197" type="line" smooth="yes"/>
      <point x="318" y="294"/>
      <point x="304" y="419"/>
      <point x="300" y="487" type="curve"/>
      <point x="295" y="419"/>
      <point x="282" y="294"/>
      <point x="267" y="197" type="curve" smooth="yes"/>
      <point x="237" y="0" type="line"/>
    </contour>
  </outline>
</glyph>
<glyph name="X" format="1">
  <advance width="600"/>
  <unicode hex="0058"/>
  <outline>
    <contour>
      <point x="42" y="0" type="line"/>
      <point x="222" y="360" type="line"/>
      <point x="52" y="700" type="line"/>
      <point x="206" y="700" type="line"/>
      <point x="255" y="599" type="line" smooth="yes"/>
      <point x="279" y="549"/>
      <point x="293" y="502"/>
      <point x="304" y="467" type="curve"/>
      <point x="315" y="503"/>
      <point x="329" y="549"/>
      <point x="353" y="599" type="curve" smooth="yes"/>
      <point x="401" y="700" type="line"/>
      <point x="548" y="700" type="line"/>
      <point x="377" y="361" type="line"/>
      <point x="558" y="0" type="line"/>
      <point x="403" y="0" type="line"/>
      <point x="347" y="119" type="line" smooth="yes"/>
      <point x="322" y="171"/>
      <point x="307" y="219"/>
      <point x="296" y="254" type="curve"/>
      <point x="285" y="219"/>
      <point x="269" y="171"/>
      <point x="245" y="119" type="curve" smooth="yes"/>
      <point x="190" y="0" type="line"/>
    </contour>
  </outline>
</glyph>
<glyph name="Y" format="1">
  <advance width="600"/>
  <unicode hex="0059"/>
  <outline>
    <contour>
      <point x="230" y="0" type="line"/>
      <point x="230" y="273" type="line"/>
      <point x="34" y="700" type="line"/>
      <point x="190" y="700" type="line"/>
      <point x="244" y="568" type="line" smooth="yes"/>
      <point x="272" y="499"/>
      <point x="291" y="429"/>
      <point x="303" y="380" type="curve"/>
      <point x="315" y="430"/>
      <point x="335" y="500"/>
      <point x="363" y="568" type="curve" smooth="yes"/>
      <point x="417" y="700" type="line"/>
      <point x="566" y="700" type="line"/>
      <point x="373" y="275" type="line"/>
      <point x="373" y="0" type="line"/>
    </contour>
  </outline>
</glyph>
<glyph name="Z" format="1">
  <advance width="600"/>
  <unicode hex="005A"/>
  <outline>
    <contour>
      <point x="69" y="0" type="line"/>
      <point x="69" y="108" type="line"/>
      <point x="282" y="452" type="line" smooth="yes"/>
      <point x="319" y="512"/>
      <point x="346" y="548"/>
      <point x="370" y="580" type="curve"/>
      <point x="343" y="580"/>
      <point x="283" y="579"/>
      <point x="244" y="579" type="curve" smooth="yes"/>
      <point x="86" y="579" type="line"/>
      <point x="86" y="700" type="line"/>
      <point x="526" y="700" type="line"/>
      <point x="526" y="592" type="line"/>
      <point x="312" y="249" type="line" smooth="yes"/>
      <point x="278" y="195"/>
      <point x="250" y="152"/>
      <point x="224" y="120" type="curve"/>
      <point x="252" y="120"/>
      <point x="310" y="121"/>
      <point x="349" y="121" type="curve" smooth="yes"/>
      <point x="526" y="121" type="line"/>
      <point x="526" y="0" type="line"/>
    </contour>
  </outline>
</glyph>
<glyph name="bracketleft" format="1">
  <advance width="600"/>
  <unicode hex="005B"/>
  <outline>
    <contour>
      <point x="173" y="-120" type="line"/>
      <point x="173" y="700" type="line"/>
      <point x="449" y="700" type="line"/>
      <point x="449" y="585" type="line"/>
      <point x="310" y="585" type="line"/>
      <point x="310" y="-5" type="line"/>
      <point x="449" y="-5" type="line"/>
      <point x="449" y="-120" type="line"/>
    </contour>
  </outline>
</glyph>
<glyph name="backslash" format="1">
  <advance width="600"/>
  <unicode hex="005C"/>
  <outline>
    <contour>
      <point x="431" y="-90" type="line"/>
      <point x="37" y="790" type="line"/>
      <point x="169" y="790" type="line"/>
      <point x="563" y="-90" type="line"/>
    </contour>
  </outline>
</glyph>
<glyph name="bracketright" format="1">
  <advance width="600"/>
  <unicode hex="005D"/>
  <outline>
    <contour>
      <point x="151" y="-120" type="line"/>
      <point x="151" y="-5" type="line"/>
      <point x="290" y="-5" type="line"/>
      <point x="290" y="585" type="line"/>
      <point x="151" y="585" type="line"/>
      <point x="151" y="700" type="line"/>
      <point x="427" y="700" type="line"/>
      <point x="427" y="-120" type="line"/>
    </contour>
  </outline>
</glyph>
<glyph name="asciicircum" format="1">
  <advance width="600"/>
  <unicode hex="005E"/>
  <outline>
    <contour>
      <point x="47" y="371" type="line"/>
      <point x="240" y="700" type="line"/>
      <point x="360" y="700" type="line"/>
      <point x="553" y="371" type="line"/>
      <point x="406" y="371" type="line"/>
      <point x="299" y="571" type="line"/>
      <point x="192" y="371" type="line"/>
    </contour>
  </outline>
</glyph>
<glyph name="grave" format="1">
  <advance width="600"/>
  <unicode hex="0060"/>
  <outline>
    <contour>
      <point x="291" y="595" type="line"/>
      <point x="136" y="755" type="line"/>
      <point x="312" y="755" type="line"/>
      <point x="394" y="595" type="line"/>
    </contour>
  </outline>
</glyph>
<glyph name="a" format="1">
  <advance width="600"/>
  <unicode hex="0061"/>
  <outline>
    <contour>
      <point x="235" y="-11" type="curve" smooth="yes"/>
      <point x="137" y="-11"/>
      <point x="60" y="45"/>
      <point x="60" y="166" type="curve" smooth="yes"/>
      <point x="60" y="280"/>
      <point x="148" y="335"/>
      <point x="259" y="335" type="curve" smooth="yes"/>
      <point x="310" y="335"/>
      <point x="347" y="325"/>
      <point x="378" y="310" type="curve"/>
      <point x="378" y="347" type="line" smooth="yes"/>
      <point x="378" y="405"/>
      <point x="347" y="429"/>
      <point x="287" y="429" type="curve" smooth="yes"/>
      <point x="231" y="429"/>
      <point x="187" y="417"/>
      <point x="139" y="391" type="curve"/>
      <point x="98" y="491" type="line"/>
      <point x="157" y="520"/>
      <point x="222" y="536"/>
      <point x="311" y="536" type="curve" smooth="yes"/>
      <point x="450" y="536"/>
      <point x="520" y="469"/>
      <point x="520" y="346" type="curve" smooth="yes"/>
      <point x="520" y="0" type="line"/>
      <point x="378" y="0" type="line"/>
      <point x="378" y="46" type="line"/>
      <point x="342" y="15"/>
      <point x="293" y="-11"/>
    </contour>
    <contour>
      <point x="272" y="95" type="curve" smooth="yes"/>
      <point x="317" y="95"/>
      <point x="355" y="116"/>
      <point x="378" y="141" type="curve"/>
      <point x="378" y="220" type="line"/>
      <point x="352" y="233"/>
      <point x="324" y="241"/>
      <point x="278" y="241" type="curve" smooth="yes"/>
      <point x="226" y="241"/>
      <point x="197" y="214"/>
      <point x="197" y="169" type="curve" smooth="yes"/>
      <point x="197" y="122"/>
      <point x="223" y="95"/>
    </contour>
  </outline>
</glyph>
<glyph name="b" format="1">
  <advance width="600"/>
  <unicode hex="0062"/>
  <outline>
    <contour>
      <point x="354" y="-11" type="curve" smooth="yes"/>
      <point x="296" y="-11"/>
      <point x="255" y="15"/>
      <point x="223" y="46" type="curve"/>
      <point x="223" y="0" type="line"/>
      <point x="81" y="0" type="line"/>
      <point x="81" y="668" type="line"/>
      <point x="223" y="729" type="line"/>
      <point x="223" y="476" type="line"/>
      <point x="260" y="509"/>
      <point x="300" y="536"/>
      <point x="362" y="536" type="curve" smooth="yes"/>
      <point x="463" y="536"/>
      <point x="544" y="455"/>
      <point x="544" y="266" type="curve" smooth="yes"/>
      <point x="544" y="79"/>
      <point x="464" y="-11"/>
    </contour>
    <contour>
      <point x="317" y="109" type="curve" smooth="yes"/>
      <point x="372" y="109"/>
      <point x="400" y="150"/>
      <point x="400" y="262" type="curve" smooth="yes"/>
      <point x="400" y="377"/>
      <point x="370" y="416"/>
      <point x="315" y="416" type="curve" smooth="yes"/>
      <point x="279" y="416"/>
      <point x="248" y="399"/>
      <point x="223" y="373" type="curve"/>
      <point x="223" y="154" type="line"/>
      <point x="247" y="127"/>
      <point x="277" y="109"/>
    </contour>
  </outline>
</glyph>
<glyph name="c" format="1">
  <advance width="600"/>
  <unicode hex="0063"/>
  <outline>
    <contour>
      <point x="327" y="-11" type="curve" smooth="yes"/>
      <point x="178" y="-11"/>
      <point x="70" y="89"/>
      <point x="70" y="264" type="curve" smooth="yes"/>
      <point x="70" y="428"/>
      <point x="174" y="536"/>
      <point x="332" y="536" type="curve" smooth="yes"/>
      <point x="421" y="536"/>
      <point x="482" y="503"/>
      <point x="532" y="444" type="curve"/>
      <point x="437" y="358" type="line"/>
      <point x="406" y="397"/>
      <point x="380" y="419"/>
      <point x="327" y="419" type="curve" smooth="yes"/>
      <point x="257" y="419"/>
      <point x="214" y="354"/>
      <point x="214" y="263" type="curve" smooth="yes"/>
      <point x="214" y="168"/>
      <point x="253" y="106"/>
      <point x="332" y="106" type="curve" smooth="yes"/>
      <point x="380" y="106"/>
      <point x="416" y="132"/>
      <point x="450" y="173" type="curve"/>
      <point x="535" y="91" type="line"/>
      <point x="484" y="29"/>
      <point x="418" y="-11"/>
    </contour>
  </outline>
</glyph>
<glyph name="e" format="1">
  <advance width="600"/>
  <unicode hex="0065"/>
  <outline>
    <contour>
      <point x="306" y="-11" type="curve" smooth="yes"/>
      <point x="163" y="-11"/>
      <point x="58" y="87"/>
      <point x="58" y="264" type="curve" smooth="yes"/>
      <point x="58" y="439"/>
      <point x="165" y="536"/>
      <point x="303" y="536" type="curve" smooth="yes"/>
      <point x="450" y="536"/>
      <point x="538" y="435"/>
      <point x="538" y="256" type="curve" smooth="yes"/>
      <point x="538" y="238"/>
      <point x="538" y="228"/>
      <point x="537" y="219" type="curve"/>
      <point x="197" y="219" type="line"/>
      <point x="204" y="148"/>
      <point x="248" y="105"/>
      <point x="315" y="105" type="curve" smooth="yes"/>
      <point x="373" y="105"/>
      <point x="408" y="119"/>
      <point x="459" y="144" type="curve"/>
      <point x="511" y="44" type="line"/>
      <point x="445" y="8"/>
      <point x="392" y="-11"/>
    </contour>
    <contour>
      <point x="197" y="313" type="curve"/>
      <point x="407" y="313" type="line"/>
      <point x="400" y="383"/>
      <point x="373" y="425"/>
      <point x="300" y="425" type="curve" smooth="yes"/>
      <point x="240" y="425"/>
      <point x="205" y="384"/>
    </contour>
  </outline>
</glyph>
<glyph name="f" format="1">
  <advance width="600"/>
  <unicode hex="0066"/>
  <outline>
    <contour>
      <point x="206" y="0" type="line"/>
      <point x="206" y="407" type="line"/>
      <point x="117" y="407" type="line"/>
      <point x="117" y="525" type="line"/>
      <point x="206" y="525" type="line"/>
      <point x="206" y="551" type="line" smooth="yes"/>
      <point x="206" y="673"/>
      <point x="276" y="726"/>
      <point x="372" y="726" type="curve" smooth="yes"/>
      <point x="430" y="726"/>
      <point x="473" y="712"/>
      <point x="499" y="700" type="curve"/>
      <point x="499" y="594" type="line"/>
      <point x="480" y="603"/>
      <point x="452" y="612"/>
      <point x="415" y="612" type="curve" smooth="yes"/>
      <point x="375" y="612"/>
      <point x="345" y="598"/>
      <point x="345" y="552" type="curve" smooth="yes"/>
      <point x="345" y="525" type="line"/>
      <point x="479" y="525" type="line"/>
      <point x="479" y="407" type="line"/>
      <point x="348" y="407" type="line"/>
      <point x="348" y="0" type="line"/>
    </contour>
  </outline>
</glyph>
<glyph name="g" format="1">
  <advance width="600"/>
  <unicode hex="0067"/>
  <outline>
    <contour>
      <point x="248" y="-193" type="curve"/>
      <point x="196" y="-103" type="line"/>
      <point x="341" y="-88"/>
      <point x="378" y="-61"/>
      <point x="378" y="29" type="curve" smooth="yes"/>
      <point x="378" y="50" type="line"/>
      <point x="341" y="18"/>
      <point x="299" y="-8"/>
      <point x="238" y="-8" type="curve" smooth="yes"/>
      <point x="138" y="-8"/>
      <point x="56" y="67"/>
      <point x="56" y="259" type="curve" smooth="yes"/>
      <point x="56" y="446"/>
      <point x="135" y="536"/>
      <point x="247" y="536" type="curve" smooth="yes"/>
      <point x="306" y="536"/>
      <point x="346" y="511"/>
      <point x="378" y="482" type="curve"/>
      <point x="378" y="525" type="line"/>
      <point x="519" y="525" type="line"/>
      <point x="519" y="69" type="line" smooth="yes"/>
      <point x="519" y="-104"/>
      <point x="445" y="-173"/>
    </contour>
    <contour>
      <point x="286" y="109" type="curve" smooth="yes"/>
      <point x="323" y="109"/>
      <point x="353" y="126"/>
      <point x="378" y="152" type="curve"/>
      <point x="378" y="372" type="line"/>
      <point x="355" y="398"/>
      <point x="324" y="416"/>
      <point x="284" y="416" type="curve" smooth="yes"/>
      <point x="229" y="416"/>
      <point x="200" y="375"/>
      <point x="200" y="263" type="curve" smooth="yes"/>
      <point x="200" y="144"/>
      <point x="231" y="109"/>
    </contour>
  </outline>
</glyph>
<glyph name="h" format="1">
  <advance width="600"/>
  <unicode hex="0068"/>
  <outline>
    <contour>
      <point x="77" y="0" type="line"/>
      <point x="77" y="668" type="line"/>
      <point x="219" y="729" type="line"/>
      <point x="219" y="479" type="line"/>
      <point x="251" y="511"/>
      <point x="291" y="536"/>
      <point x="354" y="536" type="curve" smooth="yes"/>
      <point x="465" y="536"/>
      <point x="526" y="465"/>
      <point x="526" y="324" type="curve" smooth="yes"/>
      <point x="526" y="0" type="line"/>
      <point x="384" y="0" type="line"/>
      <point x="384" y="305" type="line" smooth="yes"/>
      <point x="384" y="387"/>
      <point x="356" y="416"/>
      <point x="304" y="416" type="curve" smooth="yes"/>
      <point x="255" y="416"/>
      <point x="219" y="388"/>
      <point x="219" y="309" type="curve" smooth="yes"/>
      <point x="219" y="0" type="line"/>
    </contour>
  </outline>
</glyph>
<glyph name="i" format="1">
  <advance width="600"/>
  <unicode hex="0069"/>
  <outline>
    <contour>
      <point x="273" y="593" type="curve" smooth="yes"/>
      <point x="219" y="593"/>
      <point x="185" y="628"/>
      <point x="185" y="672" type="curve" smooth="yes"/>
      <point x="185" y="716"/>
      <point x="219" y="750"/>
      <point x="273" y="750" type="curve" smooth="yes"/>
      <point x="326" y="750"/>
      <point x="360" y="716"/>
      <point x="360" y="672" type="curve" smooth="yes"/>
      <point x="360" y="628"/>
      <point x="326" y="593"/>
    </contour>
    <contour>
      <point x="358" y="-11" type="curve" smooth="yes"/>
      <point x="256" y="-11"/>
      <point x="200" y="43"/>
      <point x="200" y="151" type="curve" smooth="yes"/>
      <point x="200" y="525" type="line"/>
      <point x="343" y="525" type="line"/>
      <point x="343" y="176" type="line" smooth="yes"/>
      <point x="343" y="126"/>
      <point x="369" y="111"/>
      <point x="408" y="111" type="curve" smooth="yes"/>
      <point x="447" y="111"/>
      <point x="478" y="121"/>
      <point x="503" y="131" type="curve"/>
      <point x="482" y="15" type="line"/>
      <point x="451" y="1"/>
      <point x="406" y="-11"/>
    </contour>
  </outline>
</glyph>
<glyph name="j" format="1">
  <advance width="600"/>
  <unicode hex="006A"/>
  <outline>
    <contour>
      <point x="311" y="593" type="curve" smooth="yes"/>
      <point x="258" y="593"/>
      <point x="224" y="628"/>
      <point x="224" y="672" type="curve" smooth="yes"/>
      <point x="224" y="716"/>
      <point x="258" y="750"/>
      <point x="311" y="750" type="curve" smooth="yes"/>
      <point x="365" y="750"/>
      <point x="399" y="716"/>
      <point x="399" y="672" type="curve" smooth="yes"/>
      <point x="399" y="628"/>
      <point x="365" y="593"/>
    </contour>
    <contour>
      <point x="154" y="-193" type="curve"/>
      <point x="98" y="-93" type="line"/>
      <point x="213" y="-74"/>
      <point x="241" y="-43"/>
      <point x="241" y="55" type="curve" smooth="yes"/>
      <point x="241" y="525" type="line"/>
      <point x="384" y="525" type="line"/>
      <point x="384" y="59" type="line" smooth="yes"/>
      <point x="384" y="-98"/>
      <point x="330" y="-168"/>
    </contour>
  </outline>
</glyph>
<glyph name="k" format="1">
  <advance width="600"/>
  <unicode hex="006B"/>
  <outline>
    <contour>
      <point x="80" y="0" type="line"/>
      <point x="80" y="668" type="line"/>
      <point x="222" y="729" type="line"/>
      <point x="222" y="438" type="line" smooth="yes"/>
      <point x="222" y="401"/>
      <point x="219" y="323"/>
      <point x="219" y="302" type="curve"/>
      <point x="232" y="323"/>
      <point x="264" y="375"/>
      <point x="288" y="406" type="curve" smooth="yes"/>
      <point x="381" y="525" type="line"/>
      <point x="540" y="525" type="line"/>
      <point x="389" y="342" type="line"/>
      <point x="553" y="0" type="line"/>
      <point x="401" y="0" type="line"/>
      <point x="290" y="224" type="line"/>
      <point x="222" y="141" type="line"/>
      <point x="222" y="0" type="line"/>
    </contour>
  </outline>
</glyph>
<glyph name="l" format="1">
  <advance width="600"/>
  <unicode hex="006C"/>
  <outline>
    <contour>
      <point x="359" y="-11" type="curve" smooth="yes"/>
      <point x="257" y="-11"/>
      <point x="202" y="43"/>
      <point x="202" y="151" type="curve" smooth="yes"/>
      <point x="202" y="668" type="line"/>
      <point x="345" y="729" type="line"/>
      <point x="345" y="176" type="line" smooth="yes"/>
      <point x="345" y="126"/>
      <point x="371" y="111"/>
      <point x="409" y="111" type="curve" smooth="yes"/>
      <point x="449" y="111"/>
      <point x="479" y="121"/>
      <point x="505" y="131" type="curve"/>
      <point x="484" y="15" type="line"/>
      <point x="452" y="1"/>
      <point x="407" y="-11"/>
    </contour>
  </outline>
</glyph>
<glyph name="m" format="1">
  <advance width="600"/>
  <unicode hex="006D"/>
  <outline>
    <contour>
      <point x="41" y="0" type="line"/>
      <point x="41" y="525" type="line"/>
      <point x="159" y="525" type="line"/>
      <point x="159" y="489" type="line"/>
      <point x="180" y="518"/>
      <point x="209" y="536"/>
      <point x="249" y="536" type="curve" smooth="yes"/>
      <point x="295" y="536"/>
      <point x="323" y="520"/>
      <point x="344" y="488" type="curve"/>
      <point x="373" y="519"/>
      <point x="403" y="536"/>
      <point x="449" y="536" type="curve" smooth="yes"/>
      <point x="520" y="536"/>
      <point x="562" y="492"/>
      <point x="562" y="387" type="curve" smooth="yes"/>
      <point x="562" y="0" type="line"/>
      <point x="444" y="0" type="line"/>
      <point x="444" y="362" type="line" smooth="yes"/>
      <point x="444" y="406"/>
      <point x="430" y="425"/>
      <point x="405" y="425" type="curve" smooth="yes"/>
      <point x="380" y="425"/>
      <point x="360" y="406"/>
      <point x="360" y="362" type="curve" smooth="yes"/>
      <point x="360" y="0" type="line"/>
      <point x="243" y="0" type="line"/>
      <point x="243" y="362" type="line" smooth="yes"/>
      <point x="243" y="406"/>
      <point x="228" y="425"/>
      <point x="203" y="425" type="curve" smooth="yes"/>
      <point x="178" y="425"/>
      <point x="159" y="406"/>
      <point x="159" y="362" type="curve" smooth="yes"/>
      <point x="159" y="0" type="line"/>
    </contour>
  </outline>
</glyph>
<glyph name="n" format="1">
  <advance width="600"/>
  <unicode hex="006E"/>
  <outline>
    <contour>
      <point x="77" y="0" type="line"/>
      <point x="77" y="525" type="line"/>
      <point x="219" y="525" type="line"/>
      <point x="219" y="479" type="line"/>
      <point x="251" y="511"/>
      <point x="291" y="536"/>
      <point x="354" y="536" type="curve" smooth="yes"/>
      <point x="465" y="536"/>
      <point x="526" y="465"/>
      <point x="526" y="324" type="curve" smooth="yes"/>
      <point x="526" y="0" type="line"/>
      <point x="384" y="0" type="line"/>
      <point x="384" y="305" type="line" smooth="yes"/>
      <point x="384" y="387"/>
      <point x="356" y="416"/>
      <point x="304" y="416" type="curve" smooth="yes"/>
      <point x="255" y="416"/>
      <point x="219" y="388"/>
      <point x="219" y="309" type="curve" smooth="yes"/>
      <point x="219" y="0" type="line"/>
    </contour>
  </outline>
</glyph>
<glyph name="o" format="1">
  <advance width="600"/>
  <unicode hex="006F"/>
  <outline>
    <contour>
      <point x="299" y="-11" type="curve" smooth="yes"/>
      <point x="162" y="-11"/>
      <point x="54" y="83"/>
      <point x="54" y="263" type="curve" smooth="yes"/>
      <point x="54" y="445"/>
      <point x="163" y="536"/>
      <point x="300" y="536" type="curve" smooth="yes"/>
      <point x="437" y="536"/>
      <point x="546" y="445"/>
      <point x="546" y="264" type="curve" smooth="yes"/>
      <point x="546" y="84"/>
      <point x="436" y="-11"/>
    </contour>
    <contour>
      <point x="300" y="107" type="curve" smooth="yes"/>
      <point x="363" y="107"/>
      <point x="402" y="158"/>
      <point x="402" y="263" type="curve" smooth="yes"/>
      <point x="402" y="370"/>
      <point x="363" y="418"/>
      <point x="300" y="418" type="curve" smooth="yes"/>
      <point x="237" y="418"/>
      <point x="198" y="370"/>
      <point x="198" y="263" type="curve" smooth="yes"/>
      <point x="198" y="158"/>
      <point x="237" y="107"/>
    </contour>
  </outline>
</glyph>
<glyph name="r" format="1">
  <advance width="600"/>
  <unicode hex="0072"/>
  <outline>
    <contour>
      <point x="120" y="0" type="line"/>
      <point x="120" y="525" type="line"/>
      <point x="262" y="525" type="line"/>
      <point x="262" y="464" type="line"/>
      <point x="296" y="507"/>
      <point x="348" y="536"/>
      <point x="406" y="536" type="curve" smooth="yes"/>
      <point x="455" y="536"/>
      <point x="491" y="524"/>
      <point x="514" y="508" type="curve"/>
      <point x="469" y="367" type="line"/>
      <point x="442" y="390"/>
      <point x="415" y="406"/>
      <point x="369" y="406" type="curve" smooth="yes"/>
      <point x="303" y="406"/>
      <point x="262" y="356"/>
      <point x="262" y="278" type="curve" smooth="yes"/>
      <point x="262" y="0" type="line"/>
    </contour>
  </outline>
</glyph>
<glyph name="s" format="1">
  <advance width="600"/>
  <unicode hex="0073"/>
  <outline>
    <contour>
      <point x="309" y="-11" type="curve" smooth="yes"/>
      <point x="220" y="-11"/>
      <point x="144" y="11"/>
      <point x="80" y="48" type="curve"/>
      <point x="123" y="155" type="line"/>
      <point x="180" y="121"/>
      <point x="254" y="99"/>
      <point x="313" y="99" type="curve" smooth="yes"/>
      <point x="364" y="99"/>
      <point x="387" y="116"/>
      <point x="387" y="144" type="curve" smooth="yes"/>
      <point x="387" y="172"/>
      <point x="375" y="183"/>
      <point x="301" y="202" type="curve" smooth="yes"/>
      <point x="167" y="236"/>
      <point x="92" y="276"/>
      <point x="92" y="375" type="curve" smooth="yes"/>
      <point x="92" y="475"/>
      <point x="164" y="536"/>
      <point x="294" y="536" type="curve" smooth="yes"/>
      <point x="382" y="536"/>
      <point x="445" y="516"/>
      <point x="504" y="483" type="curve"/>
      <point x="463" y="377" type="line"/>
      <point x="404" y="410"/>
      <point x="350" y="426"/>
      <point x="288" y="426" type="curve" smooth="yes"/>
      <point x="243" y="426"/>
      <point x="224" y="411"/>
      <point x="224" y="386" type="curve" smooth="yes"/>
      <point x="224" y="360"/>
      <point x="235" y="348"/>
      <point x="309" y="328" type="curve" smooth="yes"/>
      <point x="443" y="293"/>
      <point x="518" y="260"/>
      <point x="518" y="157" type="curve" smooth="yes"/>
      <point x="518" y="41"/>
      <point x="438" y="-11"/>
    </contour>
  </outline>
</glyph>
<glyph name="t" format="1">
  <advance width="600"/>
  <unicode hex="0074"/>
  <outline>
    <contour>
      <point x="335" y="-11" type="curve" smooth="yes"/>
      <point x="240" y="-11"/>
      <point x="189" y="44"/>
      <point x="189" y="153" type="curve" smooth="yes"/>
      <point x="189" y="407" type="line"/>
      <point x="83" y="407" type="line"/>
      <point x="83" y="525" type="line"/>
      <point x="189" y="525" type="line"/>
      <point x="189" y="668" type="line"/>
      <point x="329" y="729" type="line"/>
      <point x="329" y="525" type="line"/>
      <point x="485" y="525" type="line"/>
      <point x="485" y="407" type="line"/>
      <point x="329" y="407" type="line"/>
      <point x="329" y="177" type="line" smooth="yes"/>
      <point x="329" y="127"/>
      <point x="350" y="111"/>
      <point x="388" y="111" type="curve" smooth="yes"/>
      <point x="429" y="111"/>
      <point x="454" y="124"/>
      <point x="483" y="140" type="curve"/>
      <point x="460" y="18" type="line"/>
      <point x="426" y="1"/>
      <point x="393" y="-11"/>
    </contour>
  </outline>
</glyph>
<glyph name="u" format="1">
  <advance width="600"/>
  <unicode hex="0075"/>
  <outline>
    <contour>
      <point x="246" y="-11" type="curve" smooth="yes"/>
      <point x="135" y="-11"/>
      <point x="74" y="60"/>
      <point x="74" y="201" type="curve" smooth="yes"/>
      <point x="74" y="525" type="line"/>
      <point x="216" y="525" type="line"/>
      <point x="216" y="220" type="line" smooth="yes"/>
      <point x="216" y="138"/>
      <point x="244" y="109"/>
      <point x="296" y="109" type="curve" smooth="yes"/>
      <point x="345" y="109"/>
      <point x="381" y="137"/>
      <point x="381" y="216" type="curve" smooth="yes"/>
      <point x="381" y="525" type="line"/>
      <point x="523" y="525" type="line"/>
      <point x="523" y="0" type="line"/>
      <point x="381" y="0" type="line"/>
      <point x="381" y="46" type="line"/>
      <point x="349" y="14"/>
      <point x="309" y="-11"/>
    </contour>
  </outline>
</glyph>
<glyph name="v" format="1">
  <advance width="600"/>
  <unicode hex="0076"/>
  <outline>
    <contour>
      <point x="230" y="0" type="line"/>
      <point x="38" y="525" type="line"/>
      <point x="194" y="525" type="line"/>
      <point x="277" y="249" type="line" smooth="yes"/>
      <point x="286" y="219"/>
      <point x="296" y="160"/>
      <point x="301" y="126" type="curve"/>
      <point x="308" y="160"/>
      <point x="318" y="219"/>
      <point x="327" y="249" type="curve" smooth="yes"/>
      <point x="411" y="525" type="line"/>
      <point x="562" y="525" type="line"/>
      <point x="370" y="0" type="line"/>
    </contour>
  </outline>
</glyph>
<glyph name="w" format="1">
  <advance width="600"/>
  <unicode hex="0077"/>
  <outline>
    <contour>
      <point x="116" y="0" type="line"/>
      <point x="19" y="525" type="line"/>
      <point x="143" y="525" type="line"/>
      <point x="166" y="374" type="line" smooth="yes"/>
      <point x="175" y="316"/>
      <point x="182" y="211"/>
      <point x="187" y="143" type="curve"/>
      <point x="194" y="209"/>
      <point x="203" y="309"/>
      <point x="216" y="373" type="curve" smooth="yes"/>
      <point x="247" y="525" type="line"/>
      <point x="355" y="525" type="line"/>
      <point x="386" y="373" type="line" smooth="yes"/>
      <point x="399" y="309"/>
      <point x="410" y="194"/>
      <point x="415" y="143" type="curve"/>
      <point x="420" y="200"/>
      <point x="427" y="315"/>
      <point x="436" y="374" type="curve" smooth="yes"/>
      <point x="458" y="525" type="line"/>
      <point x="581" y="525" type="line"/>
      <point x="484" y="0" type="line"/>
      <point x="359" y="0" type="line"/>
      <point x="326" y="166" type="line" smooth="yes"/>
      <point x="311" y="244"/>
      <point x="305" y="333"/>
      <point x="299" y="392" type="curve"/>
      <point x="294" y="333"/>
      <point x="289" y="243"/>
      <point x="273" y="165" type="curve" smooth="yes"/>
      <point x="240" y="0" type="line"/>
    </contour>
  </outline>
</glyph>
<glyph name="x" format="1">
  <advance width="600"/>
  <unicode hex="0078"/>
  <outline>
    <contour>
      <point x="47" y="0" type="line"/>
      <point x="225" y="273" type="line"/>
      <point x="61" y="525" type="line"/>
      <point x="220" y="525" type="line"/>
      <point x="258" y="464" type="line" smooth="yes"/>
      <point x="278" y="431"/>
      <point x="291" y="397"/>
      <point x="305" y="366" type="curve"/>
      <point x="319" y="397"/>
      <point x="332" y="429"/>
      <point x="353" y="464" type="curve" smooth="yes"/>
      <point x="389" y="525" type="line"/>
      <point x="539" y="525" type="line"/>
      <point x="375" y="278" type="line"/>
      <point x="554" y="0" type="line"/>
      <point x="395" y="0" type="line"/>
      <point x="343" y="86" type="line" smooth="yes"/>
      <point x="323" y="119"/>
      <point x="313" y="148"/>
      <point x="297" y="182" type="curve"/>
      <point x="281" y="148"/>
      <point x="271" y="120"/>
      <point x="250" y="86" type="curve" smooth="yes"/>
      <point x="197" y="0" type="line"/>
    </contour>
  </outline>
</glyph>
<glyph name="y" format="1">
  <advance width="600"/>
  <unicode hex="0079"/>
  <outline>
    <contour>
      <point x="164" y="-185" type="line"/>
      <point x="235" y="-5" type="line"/>
      <point x="38" y="525" type="line"/>
      <point x="194" y="525" type="line"/>
      <point x="278" y="252" type="line" smooth="yes"/>
      <point x="288" y="219"/>
      <point x="298" y="163"/>
      <point x="303" y="129" type="curve"/>
      <point x="309" y="163"/>
      <point x="319" y="221"/>
      <point x="327" y="249" type="curve" smooth="yes"/>
      <point x="411" y="525" type="line"/>
      <point x="562" y="525" type="line"/>
      <point x="302" y="-185" type="line"/>
    </contour>
  </outline>
</glyph>
<glyph name="z" format="1">
  <advance width="600"/>
  <unicode hex="007A"/>
  <outline>
    <contour>
      <point x="74" y="0" type="line"/>
      <point x="74" y="102" type="line"/>
      <point x="245" y="301" type="line" smooth="yes"/>
      <point x="296" y="360"/>
      <point x="331" y="391"/>
      <point x="351" y="409" type="curve"/>
      <point x="328" y="407"/>
      <point x="277" y="406"/>
      <point x="233" y="406" type="curve" smooth="yes"/>
      <point x="91" y="406" type="line"/>
      <point x="91" y="525" type="line"/>
      <point x="518" y="525" type="line"/>
      <point x="518" y="423" type="line"/>
      <point x="352" y="229" type="line" smooth="yes"/>
      <point x="310" y="179"/>
      <point x="261" y="134"/>
      <point x="241" y="116" type="curve"/>
      <point x="264" y="118"/>
      <point x="312" y="119"/>
      <point x="357" y="119" type="curve" smooth="yes"/>
      <point x="518" y="119" type="line"/>
      <point x="518" y="0" type="line"/>
    </contour>
  </outline>
</glyph>
<glyph name="braceleft" format="1">
  <advance width="600"/>
  <unicode hex="007B"/>
  <outline>
    <contour>
      <point x="479" y="-111" type="line"/>
      <point x="270" y="-111"/>
      <point x="199" y="-29"/>
      <point x="199" y="114" type="curve" smooth="yes"/>
      <point x="199" y="178" type="line" smooth="yes"/>
      <point x="199" y="222"/>
      <point x="180" y="232"/>
      <point x="138" y="232" type="curve" smooth="yes"/>
      <point x="107" y="232" type="line"/>
      <point x="107" y="363" type="line"/>
      <point x="138" y="363" type="line" smooth="yes"/>
      <point x="180" y="363"/>
      <point x="199" y="374"/>
      <point x="199" y="418" type="curve" smooth="yes"/>
      <point x="199" y="477" type="line" smooth="yes"/>
      <point x="199" y="620"/>
      <point x="270" y="702"/>
      <point x="479" y="702" type="curve"/>
      <point x="479" y="589" type="line"/>
      <point x="371" y="582"/>
      <point x="337" y="556"/>
      <point x="337" y="462" type="curve" smooth="yes"/>
      <point x="337" y="440" type="line" smooth="yes"/>
      <point x="337" y="346"/>
      <point x="307" y="315"/>
      <point x="237" y="298" type="curve"/>
      <point x="307" y="281"/>
      <point x="337" y="248"/>
      <point x="337" y="154" type="curve" smooth="yes"/>
      <point x="337" y="129" type="line" smooth="yes"/>
      <point x="337" y="35"/>
      <point x="371" y="9"/>
      <point x="479" y="2" type="curve"/>
    </contour>
  </outline>
</glyph>
<glyph name="bar" format="1">
  <advance width="600"/>
  <unicode hex="007C"/>
  <outline>
    <contour>
      <point x="235" y="-185" type="line"/>
      <point x="235" y="800" type="line"/>
      <point x="364" y="800" type="line"/>
      <point x="364" y="-185" type="line"/>
    </contour>
  </outline>
</glyph>
<glyph name="braceright" format="1">
  <advance width="600"/>
  <unicode hex="007D"/>
  <outline>
    <contour>
      <point x="120" y="-111" type="curve"/>
      <point x="120" y="2" type="line"/>
      <point x="229" y="9"/>
      <point x="263" y="35"/>
      <point x="263" y="129" type="curve" smooth="yes"/>
      <point x="263" y="154" type="line" smooth="yes"/>
      <point x="263" y="248"/>
      <point x="292" y="281"/>
      <point x="363" y="298" type="curve"/>
      <point x="292" y="315"/>
      <point x="263" y="346"/>
      <point x="263" y="440" type="curve" smooth="yes"/>
      <point x="263" y="462" type="line" smooth="yes"/>
      <point x="263" y="556"/>
      <point x="229" y="582"/>
      <point x="120" y="589" type="curve"/>
      <point x="120" y="702" type="line"/>
      <point x="329" y="702"/>
      <point x="400" y="620"/>
      <point x="400" y="477" type="curve" smooth="yes"/>
      <point x="400" y="418" type="line" smooth="yes"/>
      <point x="400" y="374"/>
      <point x="420" y="363"/>
      <point x="462" y="363" type="curve" smooth="yes"/>
      <point x="492" y="363" type="line"/>
      <point x="492" y="232" type="line"/>
      <point x="462" y="232" type="line" smooth="yes"/>
      <point x="420" y="232"/>
      <point x="400" y="222"/>
      <point x="400" y="178" type="curve" smooth="yes"/>
      <point x="400" y="114" type="line" smooth="yes"/>
      <point x="400" y="-29"/>
      <point x="329" y="-111"/>
    </contour>
  </outline>
</glyph>
<glyph name="asciitilde" format="1">
  <advance width="600"/>
  <unicode hex="007E"/>
  <outline>
    <contour>
      <point x="152" y="269" type="curve"/>
      <point x="59" y="310" type="line"/>
      <point x="105" y="423"/>
      <point x="145" y="468"/>
      <point x="212" y="468" type="curve" smooth="yes"/>
      <point x="252" y="468"/>
      <point x="268" y="457"/>
      <point x="303" y="435" type="curve" smooth="yes"/>
      <point x="346" y="409"/>
      <point x="364" y="399"/>
      <point x="381" y="399" type="curve" smooth="yes"/>
      <point x="407" y="399"/>
      <point x="417" y="411"/>
      <point x="448" y="473" type="curve"/>
      <point x="541" y="432" type="line"/>
      <point x="495" y="319"/>
      <point x="455" y="274"/>
      <point x="388" y="274" type="curve" smooth="yes"/>
      <point x="347" y="274"/>
      <point x="331" y="285"/>
      <point x="297" y="307" type="curve" smooth="yes"/>
      <point x="253" y="334"/>
      <point x="235" y="343"/>
      <point x="219" y="343" type="curve" smooth="yes"/>
      <point x="193" y="343"/>
      <point x="183" y="330"/>
    </contour>
  </outline>
</glyph>
<glyph name="exclamdown" format="1">
  <advance width="600"/>
  <unicode hex="00A1"/>
  <outline>
    <contour>
      <point x="300" y="536" type="curve" smooth="yes"/>
      <point x="249" y="536"/>
      <point x="212" y="573"/>
      <point x="212" y="623" type="curve" smooth="yes"/>
      <point x="212" y="673"/>
      <point x="249" y="711"/>
      <point x="300" y="711" type="curve" smooth="yes"/>
      <point x="351" y="711"/>
      <point x="388" y="673"/>
      <point x="388" y="623" type="curve" smooth="yes"/>
      <point x="388" y="573"/>
      <point x="351" y="536"/>
    </contour>
    <contour>
      <point x="223" y="0" type="line"/>
      <point x="223" y="245" type="line"/>
      <point x="252" y="464" type="line"/>
      <point x="348" y="464" type="line"/>
      <point x="377" y="245" type="line"/>
      <point x="377" y="0" type="line"/>
    </contour>
  </outline>
</glyph>
<glyph name="cent" format="1">
  <advance width="600"/>
  <unicode hex="00A2"/>
  <outline>
    <contour>
      <point x="254" y="91" type="line"/>
      <point x="144" y="119"/>
      <point x="70" y="212"/>
      <point x="70" y="357" type="curve" smooth="yes"/>
      <point x="70" y="492"/>
      <point x="141" y="589"/>
      <point x="254" y="619" type="curve"/>
      <point x="254" y="714" type="line"/>
      <point x="394" y="714" type="line"/>
      <point x="394" y="623" type="line"/>
      <point x="451" y="611"/>
      <point x="495" y="581"/>
      <point x="532" y="537" type="curve"/>
      <point x="437" y="451" type="line"/>
      <point x="417" y="477"/>
      <point x="398" y="495"/>
      <point x="373" y="504" type="curve"/>
      <point x="373" y="206" type="line"/>
      <point x="402" y="216"/>
      <point x="426" y="238"/>
      <point x="450" y="266" type="curve"/>
      <point x="535" y="184" type="line"/>
      <point x="497" y="138"/>
      <point x="452" y="105"/>
      <point x="394" y="90" type="curve"/>
      <point x="394" y="-11" type="line"/>
      <point x="254" y="-11" type="line"/>
    </contour>
    <contour>
      <point x="274" y="497" type="line"/>
      <point x="236" y="473"/>
      <point x="214" y="421"/>
      <point x="214" y="356" type="curve" smooth="yes"/>
      <point x="214" y="288"/>
      <point x="234" y="237"/>
      <point x="274" y="214" type="curve"/>
    </contour>
  </outline>
</glyph>
<glyph name="sterling" format="1">
  <advance width="600"/>
  <unicode hex="00A3"/>
  <outline>
    <contour>
      <point x="80" y="0" type="line"/>
      <point x="80" y="100" type="line"/>
      <point x="123" y="145"/>
      <point x="158" y="190"/>
      <point x="165" y="269" type="curve"/>
      <point x="81" y="269" type="line"/>
      <point x="81" y="379" type="line"/>
      <point x="151" y="379" type="line"/>
      <point x="132" y="430"/>
      <point x="98" y="464"/>
      <point x="98" y="535" type="curve" smooth="yes"/>
      <point x="98" y="641"/>
      <point x="177" y="711"/>
      <point x="323" y="711" type="curve" smooth="yes"/>
      <point x="414" y="711"/>
      <point x="488" y="676"/>
      <point x="543" y="611" type="curve"/>
      <point x="457" y="524" type="line"/>
      <point x="416" y="573"/>
      <point x="377" y="596"/>
      <point x="321" y="596" type="curve" smooth="yes"/>
      <point x="259" y="596"/>
      <point x="236" y="568"/>
      <point x="236" y="525" type="curve" smooth="yes"/>
      <point x="236" y="471"/>
      <point x="269" y="440"/>
      <point x="285" y="379" type="curve"/>
      <point x="419" y="379" type="line"/>
      <point x="419" y="269" type="line"/>
      <point x="293" y="269" type="line"/>
      <point x="289" y="210"/>
      <point x="268" y="161"/>
      <point x="235" y="119" type="curve"/>
      <point x="536" y="119" type="line"/>
      <point x="536" y="0" type="line"/>
    </contour>
  </outline>
</glyph>
<glyph name="yen" format="1">
  <advance width="600"/>
  <unicode hex="00A5"/>
  <outline>
    <contour>
      <point x="228" y="0" type="line"/>
      <point x="228" y="111" type="line"/>
      <point x="99" y="111" type="line"/>
      <point x="99" y="221" type="line"/>
      <point x="228" y="221" type="line"/>
      <point x="228" y="273" type="line"/>
      <point x="37" y="700" type="line"/>
      <point x="193" y="700" type="line"/>
      <point x="246" y="568" type="line" smooth="yes"/>
      <point x="274" y="498"/>
      <point x="291" y="429"/>
      <point x="303" y="380" type="curve"/>
      <point x="315" y="430"/>
      <point x="333" y="499"/>
      <point x="361" y="568" type="curve" smooth="yes"/>
      <point x="414" y="700" type="line"/>
      <point x="562" y="700" type="line"/>
      <point x="371" y="275" type="line"/>
      <point x="371" y="221" type="line"/>
      <point x="500" y="221" type="line"/>
      <point x="500" y="111" type="line"/>
      <point x="371" y="111" type="line"/>
      <point x="371" y="0" type="line"/>
    </contour>
  </outline>
</glyph>
<glyph name="section" format="1">
  <advance width="600"/>
  <unicode hex="00A7"/>
  <outline>
    <contour>
      <point x="297" y="-164" type="curve" smooth="yes"/>
      <point x="211" y="-164"/>
      <point x="145" y="-124"/>
      <point x="98" y="-62" type="curve"/>
      <point x="178" y="14" type="line"/>
      <point x="214" y="-31"/>
      <point x="253" y="-55"/>
      <point x="304" y="-55" type="curve" smooth="yes"/>
      <point x="343" y="-55"/>
      <point x="362" y="-35"/>
      <point x="362" y="-6" type="curve" smooth="yes"/>
      <point x="362" y="27"/>
      <point x="346" y="50"/>
      <point x="271" y="77" type="curve" smooth="yes"/>
      <point x="116" y="132"/>
      <point x="59" y="179"/>
      <point x="59" y="284" type="curve" smooth="yes"/>
      <point x="59" y="356"/>
      <point x="98" y="406"/>
      <point x="150" y="445" type="curve"/>
      <point x="127" y="472"/>
      <point x="115" y="505"/>
      <point x="115" y="547" type="curve" smooth="yes"/>
      <point x="115" y="640"/>
      <point x="180" y="711"/>
      <point x="303" y="711" type="curve" smooth="yes"/>
      <point x="389" y="711"/>
      <point x="456" y="673"/>
      <point x="500" y="608" type="curve"/>
      <point x="422" y="533" type="line"/>
      <point x="386" y="580"/>
      <point x="347" y="602"/>
      <point x="296" y="602" type="curve" smooth="yes"/>
      <point x="256" y="602"/>
      <point x="238" y="582"/>
      <point x="238" y="553" type="curve" smooth="yes"/>
      <point x="238" y="520"/>
      <point x="254" y="497"/>
      <point x="328" y="470" type="curve" smooth="yes"/>
      <point x="487" y="413"/>
      <point x="541" y="371"/>
      <point x="541" y="263" type="curve" smooth="yes"/>
      <point x="541" y="190"/>
      <point x="503" y="141"/>
      <point x="449" y="102" type="curve"/>
      <point x="472" y="75"/>
      <point x="485" y="42"/>
      <point x="485" y="0" type="curve" smooth="yes"/>
      <point x="485" y="-93"/>
      <point x="420" y="-164"/>
    </contour>
    <contour>
      <point x="369" y="165" type="curve"/>
      <point x="402" y="188"/>
      <point x="418" y="217"/>
      <point x="418" y="254" type="curve" smooth="yes"/>
      <point x="418" y="299"/>
      <point x="394" y="323"/>
      <point x="296" y="358" type="curve" smooth="yes"/>
      <point x="269" y="367"/>
      <point x="248" y="374"/>
      <point x="228" y="384" type="curve"/>
      <point x="195" y="361"/>
      <point x="178" y="334"/>
      <point x="178" y="295" type="curve" smooth="yes"/>
      <point x="178" y="249"/>
      <point x="207" y="222"/>
      <point x="304" y="189" type="curve" smooth="yes"/>
      <point x="329" y="180"/>
      <point x="349" y="174"/>
    </contour>
  </outline>
</glyph>
<glyph name="dieresis" format="1">
  <advance width="600"/>
  <unicode hex="00A8"/>
  <outline>
    <contour>
      <point x="414" y="604" type="curve" smooth="yes"/>
      <point x="370" y="604"/>
      <point x="335" y="639"/>
      <point x="335" y="679" type="curve" smooth="yes"/>
      <point x="335" y="721"/>
      <point x="370" y="755"/>
      <point x="414" y="755" type="curve" smooth="yes"/>
      <point x="455" y="755"/>
      <point x="492" y="721"/>
      <point x="492" y="679" type="curve" smooth="yes"/>
      <point x="492" y="639"/>
      <point x="455" y="604"/>
    </contour>
    <contour>
      <point x="187" y="604" type="curve" smooth="yes"/>
      <point x="143" y="604"/>
      <point x="108" y="639"/>
      <point x="108" y="679" type="curve" smooth="yes"/>
      <point x="108" y="721"/>
      <point x="143" y="755"/>
      <point x="187" y="755" type="curve" smooth="yes"/>
      <point x="228" y="755"/>
      <point x="265" y="721"/>
      <point x="265" y="679" type="curve" smooth="yes"/>
      <point x="265" y="639"/>
      <point x="228" y="604"/>
    </contour>
  </outline>
</glyph>
<glyph name="copyright" format="1">
  <advance width="600"/>
  <unicode hex="00A9"/>
  <outline>
    <contour>
      <point x="299" y="-11" type="curve" smooth="yes"/>
      <point x="138" y="-11"/>
      <point x="38" y="138"/>
      <point x="38" y="350" type="curve" smooth="yes"/>
      <point x="38" y="562"/>
      <point x="138" y="711"/>
      <point x="299" y="711" type="curve" smooth="yes"/>
      <point x="462" y="711"/>
      <point x="562" y="562"/>
      <point x="562" y="350" type="curve" smooth="yes"/>
      <point x="562" y="138"/>
      <point x="462" y="-11"/>
    </contour>
    <contour>
      <point x="299" y="44" type="curve" smooth="yes"/>
      <point x="431" y="44"/>
      <point x="502" y="170"/>
      <point x="502" y="350" type="curve" smooth="yes"/>
      <point x="502" y="530"/>
      <point x="431" y="656"/>
      <point x="299" y="656" type="curve" smooth="yes"/>
      <point x="168" y="656"/>
      <point x="98" y="530"/>
      <point x="98" y="350" type="curve" smooth="yes"/>
      <point x="98" y="170"/>
      <point x="168" y="44"/>
    </contour>
    <contour>
      <point x="299" y="148" type="curve" smooth="yes"/>
      <point x="218" y="148"/>
      <point x="178" y="217"/>
      <point x="178" y="351" type="curve" smooth="yes"/>
      <point x="178" y="487"/>
      <point x="222" y="556"/>
      <point x="300" y="556" type="curve" smooth="yes"/>
      <point x="369" y="556"/>
      <point x="395" y="513"/>
      <point x="410" y="441" type="curve"/>
      <point x="338" y="422" type="line"/>
      <point x="328" y="472"/>
      <point x="322" y="488"/>
      <point x="299" y="488" type="curve" smooth="yes"/>
      <point x="268" y="488"/>
      <point x="257" y="451"/>
      <point x="257" y="352" type="curve" smooth="yes"/>
      <point x="257" y="251"/>
      <point x="269" y="215"/>
      <point x="300" y="215" type="curve" smooth="yes"/>
      <point x="322" y="215"/>
      <point x="331" y="230"/>
      <point x="343" y="282" type="curve"/>
      <point x="411" y="258" type="line"/>
      <point x="395" y="188"/>
      <point x="366" y="148"/>
    </contour>
  </outline>
</glyph>
<glyph name="ordfeminine" format="1">
  <advance width="600"/>
  <unicode hex="00AA"/>
  <outline>
    <contour>
      <point x="242" y="241" type="curve" smooth="yes"/>
      <point x="158" y="241"/>
      <point x="94" y="289"/>
      <point x="94" y="393" type="curve" smooth="yes"/>
      <point x="94" y="492"/>
      <point x="167" y="539"/>
      <point x="261" y="539" type="curve" smooth="yes"/>
      <point x="305" y="539"/>
      <point x="337" y="530"/>
      <point x="363" y="518" type="curve"/>
      <point x="363" y="551" type="line" smooth="yes"/>
      <point x="363" y="597"/>
      <point x="337" y="616"/>
      <point x="286" y="616" type="curve" smooth="yes"/>
      <point x="240" y="616"/>
      <point x="204" y="607"/>
      <point x="161" y="583" type="curve"/>
      <point x="125" y="671" type="line"/>
      <point x="176" y="696"/>
      <point x="234" y="711"/>
      <point x="307" y="711" type="curve" smooth="yes"/>
      <point x="425" y="711"/>
      <point x="482" y="655"/>
      <point x="482" y="550" type="curve" smooth="yes"/>
      <point x="482" y="250" type="line"/>
      <point x="363" y="250" type="line"/>
      <point x="363" y="287" type="line"/>
      <point x="333" y="261"/>
      <point x="289" y="241"/>
    </contour>
    <contour>
      <point x="274" y="332" type="curve" smooth="yes"/>
      <point x="312" y="332"/>
      <point x="345" y="348"/>
      <point x="363" y="367" type="curve"/>
      <point x="363" y="440" type="line"/>
      <point x="341" y="450"/>
      <point x="318" y="457"/>
      <point x="279" y="457" type="curve" smooth="yes"/>
      <point x="237" y="457"/>
      <point x="210" y="434"/>
      <point x="210" y="396" type="curve" smooth="yes"/>
      <point x="210" y="356"/>
      <point x="234" y="332"/>
    </contour>
  </outline>
</glyph>
<glyph name="guillemotleft" format="1">
  <advance width="600"/>
  <unicode hex="00AB"/>
  <outline>
    <contour>
      <point x="415" y="0" type="line"/>
      <point x="272" y="262" type="line"/>
      <point x="415" y="525" type="line"/>
      <point x="556" y="525" type="line"/>
      <point x="412" y="263" type="line"/>
      <point x="556" y="0" type="line"/>
    </contour>
    <contour>
      <point x="175" y="0" type="line"/>
      <point x="31" y="262" type="line"/>
      <point x="175" y="525" type="line"/>
      <point x="315" y="525" type="line"/>
      <point x="172" y="263" type="line"/>
      <point x="315" y="0" type="line"/>
    </contour>
  </outline>
</glyph>
<glyph name="degree" format="1">
  <advance width="600"/>
  <unicode hex="00B0"/>
  <outline>
    <contour>
      <point x="300" y="293" type="curve" smooth="yes"/>
      <point x="183" y="293"/>
      <point x="93" y="381"/>
      <point x="93" y="503" type="curve" smooth="yes"/>
      <point x="93" y="622"/>
      <point x="183" y="711"/>
      <point x="300" y="711" type="curve" smooth="yes"/>
      <point x="418" y="711"/>
      <point x="507" y="622"/>
      <point x="507" y="503" type="curve" smooth="yes"/>
      <point x="507" y="381"/>
      <point x="418" y="293"/>
    </contour>
    <contour>
      <point x="300" y="394" type="curve" smooth="yes"/>
      <point x="360" y="394"/>
      <point x="401" y="436"/>
      <point x="401" y="503" type="curve" smooth="yes"/>
      <point x="401" y="567"/>
      <point x="360" y="611"/>
      <point x="300" y="611" type="curve" smooth="yes"/>
      <point x="241" y="611"/>
      <point x="199" y="567"/>
      <point x="199" y="503" type="curve" smooth="yes"/>
      <point x="199" y="436"/>
      <point x="241" y="394"/>
    </contour>
  </outline>
</glyph>
<glyph name="acute" format="1">
  <advance width="600"/>
  <unicode hex="00B4"/>
  <outline>
    <contour>
      <point x="206" y="595" type="line"/>
      <point x="288" y="755" type="line"/>
      <point x="464" y="755" type="line"/>
      <point x="309" y="595" type="line"/>
    </contour>
  </outline>
</glyph>
<glyph name="paragraph" format="1">
  <advance width="600"/>
  <unicode hex="00B6"/>
  <outline>
    <contour>
      <point x="270" y="-185" type="line"/>
      <point x="270" y="290" type="line"/>
      <point x="241" y="290" type="line" smooth="yes"/>
      <point x="133" y="290"/>
      <point x="45" y="363"/>
      <point x="45" y="496" type="curve" smooth="yes"/>
      <point x="45" y="629"/>
      <point x="137" y="700"/>
      <point x="245" y="700" type="curve" smooth="yes"/>
      <point x="525" y="700" type="line"/>
      <point x="525" y="-185" type="line"/>
      <point x="428" y="-185" type="line"/>
      <point x="428" y="615" type="line"/>
      <point x="367" y="615" type="line"/>
      <point x="367" y="-185" type="line"/>
    </contour>
  </outline>
</glyph>
<glyph name="periodcentered" format="1">
  <advance width="600"/>
  <unicode hex="00B7"/>
  <outline>
    <contour>
      <point x="299" y="251" type="curve" smooth="yes"/>
      <point x="234" y="251"/>
      <point x="184" y="301"/>
      <point x="184" y="367" type="curve" smooth="yes"/>
      <point x="184" y="433"/>
      <point x="234" y="481"/>
      <point x="299" y="481" type="curve" smooth="yes"/>
      <point x="364" y="481"/>
      <point x="415" y="433"/>
      <point x="415" y="367" type="curve" smooth="yes"/>
      <point x="415" y="301"/>
      <point x="364" y="251"/>
    </contour>
  </outline>
</glyph>
<glyph name="cedilla" format="1">
  <advance width="600"/>
  <unicode hex="00B8"/>
  <outline>
    <contour>
      <point x="307" y="-193" type="curve" smooth="yes"/>
      <point x="256" y="-193"/>
      <point x="209" y="-178"/>
      <point x="170" y="-157" type="curve"/>
      <point x="189" y="-116" type="line"/>
      <point x="223" y="-133"/>
      <point x="257" y="-141"/>
      <point x="287" y="-141" type="curve" smooth="yes"/>
      <point x="324" y="-141"/>
      <point x="341" y="-128"/>
      <point x="341" y="-108" type="curve" smooth="yes"/>
      <point x="341" y="-92"/>
      <point x="331" y="-82"/>
      <point x="315" y="-82" type="curve" smooth="yes"/>
      <point x="299" y="-82"/>
      <point x="287" y="-88"/>
      <point x="274" y="-97" type="curve"/>
      <point x="237" y="-75" type="line"/>
      <point x="259" y="0" type="line"/>
      <point x="314" y="0" type="line"/>
      <point x="300" y="-45" type="line"/>
      <point x="312" y="-39"/>
      <point x="328" y="-34"/>
      <point x="347" y="-34" type="curve" smooth="yes"/>
      <point x="389" y="-34"/>
      <point x="421" y="-60"/>
      <point x="421" y="-106" type="curve" smooth="yes"/>
      <point x="421" y="-164"/>
      <point x="376" y="-193"/>
    </contour>
  </outline>
</glyph>
<glyph name="ordmasculine" format="1">
  <advance width="600"/>
  <unicode hex="00BA"/>
  <outline>
    <contour>
      <point x="299" y="242" type="curve" smooth="yes"/>
      <point x="181" y="242"/>
      <point x="93" y="321"/>
      <point x="93" y="476" type="curve" smooth="yes"/>
      <point x="93" y="632"/>
      <point x="182" y="711"/>
      <point x="301" y="711" type="curve" smooth="yes"/>
      <point x="419" y="711"/>
      <point x="507" y="633"/>
      <point x="507" y="477" type="curve" smooth="yes"/>
      <point x="507" y="322"/>
      <point x="418" y="242"/>
    </contour>
    <contour>
      <point x="300" y="343" type="curve" smooth="yes"/>
      <point x="355" y="343"/>
      <point x="386" y="386"/>
      <point x="386" y="477" type="curve" smooth="yes"/>
      <point x="386" y="569"/>
      <point x="355" y="609"/>
      <point x="300" y="609" type="curve" smooth="yes"/>
      <point x="245" y="609"/>
      <point x="214" y="569"/>
      <point x="214" y="477" type="curve" smooth="yes"/>
      <point x="214" y="386"/>
      <point x="245" y="343"/>
    </contour>
  </outline>
</glyph>
<glyph name="guillemotright" format="1">
  <advance width="600"/>
  <unicode hex="00BB"/>
  <outline>
    <contour>
      <point x="285" y="0" type="line"/>
      <point x="428" y="262" type="line"/>
      <point x="285" y="525" type="line"/>
      <point x="425" y="525" type="line"/>
      <point x="569" y="263" type="line"/>
      <point x="425" y="0" type="line"/>
    </contour>
    <contour>
      <point x="44" y="0" type="line"/>
      <point x="188" y="262" type="line"/>
      <point x="44" y="525" type="line"/>
      <point x="185" y="525" type="line"/>
      <point x="328" y="263" type="line"/>
      <point x="185" y="0" type="line"/>
    </contour>
  </outline>
</glyph>
<glyph name="questiondown" format="1">
  <advance width="600"/>
  <unicode hex="00BF"/>
  <outline>
    <contour>
      <point x="323" y="536" type="curve" smooth="yes"/>
      <point x="272" y="536"/>
      <point x="236" y="573"/>
      <point x="236" y="623" type="curve" smooth="yes"/>
      <point x="236" y="673"/>
      <point x="272" y="711"/>
      <point x="323" y="711" type="curve" smooth="yes"/>
      <point x="374" y="711"/>
      <point x="412" y="673"/>
      <point x="412" y="623" type="curve" smooth="yes"/>
      <point x="412" y="573"/>
      <point x="374" y="536"/>
    </contour>
    <contour>
      <point x="296" y="-11" type="curve" smooth="yes"/>
      <point x="149" y="-11"/>
      <point x="59" y="53"/>
      <point x="59" y="172" type="curve" smooth="yes"/>
      <point x="59" y="260"/>
      <point x="104" y="302"/>
      <point x="179" y="344" type="curve" smooth="yes"/>
      <point x="238" y="378"/>
      <point x="256" y="407"/>
      <point x="256" y="464" type="curve"/>
      <point x="391" y="464" type="line"/>
      <point x="391" y="375"/>
      <point x="369" y="324"/>
      <point x="270" y="270" type="curve" smooth="yes"/>
      <point x="225" y="245"/>
      <point x="202" y="225"/>
      <point x="202" y="185" type="curve" smooth="yes"/>
      <point x="202" y="142"/>
      <point x="234" y="111"/>
      <point x="299" y="111" type="curve" smooth="yes"/>
      <point x="371" y="111"/>
      <point x="427" y="139"/>
      <point x="480" y="182" type="curve"/>
      <point x="553" y="79" type="line"/>
      <point x="486" y="26"/>
      <point x="402" y="-11"/>
    </contour>
  </outline>
</glyph>
<glyph name="Aring" format="1">
  <advance width="600"/>
  <unicode hex="00C5"/>
  <outline>
    <contour>
      <point x="384" y="661" type="curve"/>
      <point x="561" y="0" type="line"/>
      <point x="418" y="0" type="line"/>
      <point x="384" y="144" type="line"/>
      <point x="212" y="144" type="line"/>
      <point x="179" y="0" type="line"/>
      <point x="39" y="0" type="line"/>
      <point x="39" y="0"/>
      <point x="217" y="661"/>
      <point x="217" y="660" type="curve"/>
      <point x="186" y="684"/>
      <point x="167" y="721"/>
      <point x="167" y="764" type="curve" smooth="yes"/>
      <point x="167" y="838"/>
      <point x="225" y="895"/>
      <point x="300" y="895" type="curve" smooth="yes"/>
      <point x="375" y="895"/>
      <point x="433" y="838"/>
      <point x="433" y="764" type="curve" smooth="yes"/>
      <point x="433" y="722"/>
      <point x="414" y="685"/>
    </contour>
    <contour>
      <point x="300" y="700" type="curve" smooth="yes"/>
      <point x="337" y="700"/>
      <point x="360" y="726"/>
      <point x="360" y="764" type="curve" smooth="yes"/>
      <point x="360" y="802"/>
      <point x="337" y="828"/>
      <point x="300" y="828" type="curve" smooth="yes"/>
      <point x="263" y="828"/>
      <point x="240" y="802"/>
      <point x="240" y="764" type="curve" smooth="yes"/>
      <point x="240" y="726"/>
      <point x="263" y="700"/>
    </contour>
    <contour>
      <point x="236" y="260" type="line"/>
      <point x="360" y="260" type="line"/>
      <point x="338" y="345" type="line" smooth="yes"/>
      <point x="315" y="433"/>
      <point x="307" y="515"/>
      <point x="298" y="575" type="curve"/>
      <point x="289" y="515"/>
      <point x="279" y="433"/>
      <point x="257" y="344" type="curve" smooth="yes"/>
    </contour>
  </outline>
</glyph>
<glyph name="AE" format="1">
  <advance width="600"/>
  <unicode hex="00C6"/>
  <outline>
    <contour>
      <point x="3" y="0" type="line"/>
      <point x="215" y="700" type="line"/>
      <point x="569" y="700" type="line"/>
      <point x="569" y="586" type="line"/>
      <point x="398" y="586" type="line"/>
      <point x="398" y="425" type="line"/>
      <point x="520" y="425" type="line"/>
      <point x="520" y="311" type="line"/>
      <point x="398" y="311" type="line"/>
      <point x="398" y="114" type="line"/>
      <point x="577" y="114" type="line"/>
      <point x="577" y="0" type="line"/>
      <point x="275" y="0" type="line"/>
      <point x="275" y="141" type="line"/>
      <point x="164" y="141" type="line"/>
      <point x="124" y="0" type="line"/>
    </contour>
    <contour>
      <point x="191" y="250" type="line"/>
      <point x="275" y="250" type="line"/>
      <point x="275" y="447" type="line" smooth="yes"/>
      <point x="275" y="513"/>
      <point x="277" y="566"/>
      <point x="278" y="603" type="curve"/>
      <point x="271" y="566"/>
      <point x="263" y="513"/>
      <point x="244" y="442" type="curve" smooth="yes"/>
    </contour>
  </outline>
</glyph>
<glyph name="Ccedilla" format="1">
  <advance width="600"/>
  <unicode hex="00C7"/>
  <outline>
    <contour>
      <point x="272" y="-8" type="line"/>
      <point x="130" y="14"/>
      <point x="55" y="144"/>
      <point x="55" y="349" type="curve" smooth="yes"/>
      <point x="55" y="581"/>
      <point x="156" y="711"/>
      <point x="317" y="711" type="curve" smooth="yes"/>
      <point x="449" y="711"/>
      <point x="507" y="643"/>
      <point x="545" y="527" type="curve"/>
      <point x="416" y="480" type="line"/>
      <point x="391" y="554"/>
      <point x="370" y="587"/>
      <point x="316" y="587" type="curve" smooth="yes"/>
      <point x="239" y="587"/>
      <point x="199" y="514"/>
      <point x="199" y="351" type="curve" smooth="yes"/>
      <point x="199" y="187"/>
      <point x="240" y="113"/>
      <point x="318" y="113" type="curve" smooth="yes"/>
      <point x="371" y="113"/>
      <point x="396" y="146"/>
      <point x="425" y="218" type="curve"/>
      <point x="547" y="163" type="line"/>
      <point x="510" y="64"/>
      <point x="449" y="-7"/>
      <point x="326" y="-11" type="curve"/>
      <point x="315" y="-45" type="line"/>
      <point x="327" y="-39"/>
      <point x="343" y="-34"/>
      <point x="362" y="-34" type="curve" smooth="yes"/>
      <point x="404" y="-34"/>
      <point x="436" y="-60"/>
      <point x="436" y="-106" type="curve" smooth="yes"/>
      <point x="436" y="-164"/>
      <point x="391" y="-193"/>
      <point x="322" y="-193" type="curve" smooth="yes"/>
      <point x="271" y="-193"/>
      <point x="224" y="-178"/>
      <point x="185" y="-157" type="curve"/>
      <point x="204" y="-116" type="line"/>
      <point x="238" y="-133"/>
      <point x="272" y="-141"/>
      <point x="302" y="-141" type="curve" smooth="yes"/>
      <point x="339" y="-141"/>
      <point x="356" y="-128"/>
      <point x="356" y="-108" type="curve" smooth="yes"/>
      <point x="356" y="-92"/>
      <point x="346" y="-82"/>
      <point x="330" y="-82" type="curve" smooth="yes"/>
      <point x="314" y="-82"/>
      <point x="302" y="-88"/>
      <point x="289" y="-97" type="curve"/>
      <point x="252" y="-75" type="line"/>
    </contour>
  </outline>
</glyph>
<glyph name="Eth" format="1">
  <advance width="600"/>
  <unicode hex="00D0"/>
  <outline>
    <contour>
      <point x="76" y="0" type="line"/>
      <point x="76" y="310" type="line"/>
      <point x="21" y="310" type="line"/>
      <point x="21" y="418" type="line"/>
      <point x="76" y="418" type="line"/>
      <point x="76" y="700" type="line"/>
      <point x="270" y="700" type="line" smooth="yes"/>
      <point x="449" y="700"/>
      <point x="550" y="593"/>
      <point x="550" y="355" type="curve" smooth="yes"/>
      <point x="550" y="103"/>
      <point x="443" y="0"/>
      <point x="256" y="0" type="curve" smooth="yes"/>
    </contour>
    <contour>
      <point x="220" y="119" type="line"/>
      <point x="263" y="119" type="line" smooth="yes"/>
      <point x="359" y="119"/>
      <point x="406" y="168"/>
      <point x="406" y="352" type="curve" smooth="yes"/>
      <point x="406" y="524"/>
      <point x="365" y="581"/>
      <point x="265" y="581" type="curve" smooth="yes"/>
      <point x="220" y="581" type="line"/>
      <point x="220" y="418" type="line"/>
      <point x="303" y="418" type="line"/>
      <point x="303" y="310" type="line"/>
      <point x="220" y="310" type="line"/>
    </contour>
  </outline>
</glyph>
<glyph name="Oslash" format="1">
  <advance width="600"/>
  <unicode hex="00D8"/>
  <outline>
    <contour>
      <point x="485" y="617" type="curve"/>
      <point x="527" y="557"/>
      <point x="550" y="468"/>
      <point x="550" y="351" type="curve" smooth="yes"/>
      <point x="550" y="113"/>
      <point x="453" y="-11"/>
      <point x="299" y="-11" type="curve" smooth="yes"/>
      <point x="266" y="-11"/>
      <point x="235" y="-5"/>
      <point x="207" y="6" type="curve"/>
      <point x="208" y="6"/>
      <point x="182" y="-50"/>
      <point x="182" y="-50" type="curve"/>
      <point x="54" y="-50" type="line"/>
      <point x="114" y="83" type="line"/>
      <point x="73" y="143"/>
      <point x="50" y="232"/>
      <point x="50" y="349" type="curve" smooth="yes"/>
      <point x="50" y="587"/>
      <point x="146" y="711"/>
      <point x="301" y="711" type="curve" smooth="yes"/>
      <point x="334" y="711"/>
      <point x="364" y="705"/>
      <point x="391" y="694" type="curve"/>
      <point x="417" y="750" type="line"/>
      <point x="545" y="750" type="line"/>
      <point x="545" y="750"/>
      <point x="485" y="618"/>
    </contour>
    <contour>
      <point x="196" y="241" type="curve"/>
      <point x="351" y="583" type="line"/>
      <point x="336" y="593"/>
      <point x="319" y="598"/>
      <point x="299" y="598" type="curve" smooth="yes"/>
      <point x="228" y="598"/>
      <point x="190" y="538"/>
      <point x="190" y="351" type="curve" smooth="yes"/>
      <point x="190" y="308"/>
      <point x="192" y="271"/>
    </contour>
    <contour>
      <point x="404" y="461" type="curve"/>
      <point x="248" y="118" type="line"/>
      <point x="263" y="107"/>
      <point x="281" y="102"/>
      <point x="301" y="102" type="curve" smooth="yes"/>
      <point x="371" y="102"/>
      <point x="410" y="162"/>
      <point x="410" y="349" type="curve" smooth="yes"/>
      <point x="410" y="393"/>
      <point x="408" y="430"/>
    </contour>
  </outline>
</glyph>
<glyph name="Thorn" format="1">
  <advance width="600"/>
  <unicode hex="00DE"/>
  <outline>
    <contour>
      <point x="77" y="0" type="line"/>
      <point x="77" y="700" type="line"/>
      <point x="220" y="700" type="line"/>
      <point x="220" y="582" type="line"/>
      <point x="325" y="582" type="line" smooth="yes"/>
      <point x="457" y="582"/>
      <point x="553" y="522"/>
      <point x="553" y="366" type="curve" smooth="yes"/>
      <point x="553" y="207"/>
      <point x="452" y="140"/>
      <point x="313" y="140" type="curve" smooth="yes"/>
      <point x="220" y="140" type="line"/>
      <point x="220" y="0" type="line"/>
    </contour>
    <contour>
      <point x="220" y="257" type="line"/>
      <point x="312" y="257" type="line" smooth="yes"/>
      <point x="380" y="257"/>
      <point x="409" y="291"/>
      <point x="409" y="362" type="curve" smooth="yes"/>
      <point x="409" y="431"/>
      <point x="382" y="465"/>
      <point x="317" y="465" type="curve" smooth="yes"/>
      <point x="220" y="465" type="line"/>
    </contour>
  </outline>
</glyph>
<glyph name="germandbls" format="1">
  <advance width="600"/>
  <unicode hex="00DF"/>
  <outline>
    <contour>
      <point x="74" y="-193" type="line"/>
      <point x="74" y="504" type="line" smooth="yes"/>
      <point x="74" y="655"/>
      <point x="161" y="726"/>
      <point x="288" y="726" type="curve" smooth="yes"/>
      <point x="407" y="726"/>
      <point x="496" y="662"/>
      <point x="496" y="544" type="curve" smooth="yes"/>
      <point x="496" y="462"/>
      <point x="455" y="427"/>
      <point x="410" y="403" type="curve"/>
      <point x="477" y="386"/>
      <point x="548" y="342"/>
      <point x="548" y="230" type="curve" smooth="yes"/>
      <point x="548" y="70"/>
      <point x="451" y="0"/>
      <point x="292" y="0" type="curve" smooth="yes"/>
      <point x="278" y="0" type="line"/>
      <point x="278" y="112" type="line"/>
      <point x="294" y="112" type="line" smooth="yes"/>
      <point x="368" y="112"/>
      <point x="406" y="148"/>
      <point x="406" y="226" type="curve" smooth="yes"/>
      <point x="406" y="308"/>
      <point x="358" y="338"/>
      <point x="289" y="338" type="curve" smooth="yes"/>
      <point x="278" y="338" type="line"/>
      <point x="278" y="448" type="line"/>
      <point x="290" y="448" type="line" smooth="yes"/>
      <point x="337" y="448"/>
      <point x="360" y="473"/>
      <point x="360" y="525" type="curve" smooth="yes"/>
      <point x="360" y="582"/>
      <point x="336" y="611"/>
      <point x="287" y="611" type="curve" smooth="yes"/>
      <point x="241" y="611"/>
      <point x="216" y="578"/>
      <point x="216" y="512" type="curve" smooth="yes"/>
      <point x="216" y="-131" type="line"/>
    </contour>
  </outline>
</glyph>
<glyph name="ae" format="1">
  <advance width="600"/>
  <unicode hex="00E6"/>
  <outline>
    <contour>
      <point x="169" y="-11" type="curve" smooth="yes"/>
      <point x="74" y="-11"/>
      <point x="22" y="46"/>
      <point x="22" y="162" type="curve" smooth="yes"/>
      <point x="22" y="279"/>
      <point x="74" y="335"/>
      <point x="164" y="335" type="curve" smooth="yes"/>
      <point x="197" y="335"/>
      <point x="218" y="328"/>
      <point x="238" y="317" type="curve"/>
      <point x="238" y="376" type="line" smooth="yes"/>
      <point x="238" y="420"/>
      <point x="223" y="438"/>
      <point x="184" y="438" type="curve" smooth="yes"/>
      <point x="150" y="438"/>
      <point x="121" y="425"/>
      <point x="81" y="400" type="curve"/>
      <point x="43" y="484" type="line"/>
      <point x="88" y="514"/>
      <point x="139" y="536"/>
      <point x="196" y="536" type="curve" smooth="yes"/>
      <point x="261" y="536"/>
      <point x="291" y="511"/>
      <point x="305" y="475" type="curve"/>
      <point x="325" y="511"/>
      <point x="360" y="536"/>
      <point x="414" y="536" type="curve" smooth="yes"/>
      <point x="524" y="536"/>
      <point x="575" y="449"/>
      <point x="575" y="263" type="curve" smooth="yes"/>
      <point x="575" y="254"/>
      <point x="575" y="238"/>
      <point x="574" y="229" type="curve"/>
      <point x="348" y="229" type="line"/>
      <point x="351" y="125"/>
      <point x="370" y="84"/>
      <point x="411" y="84" type="curve" smooth="yes"/>
      <point x="443" y="84"/>
      <point x="460" y="101"/>
      <point x="486" y="150" type="curve"/>
      <point x="567" y="102" type="line"/>
      <point x="530" y="35"/>
      <point x="489" y="-11"/>
      <point x="406" y="-11" type="curve" smooth="yes"/>
      <point x="355" y="-11"/>
      <point x="315" y="11"/>
      <point x="291" y="49" type="curve"/>
      <point x="260" y="14"/>
      <point x="224" y="-11"/>
    </contour>
    <contour>
      <point x="348" y="312" type="curve"/>
      <point x="462" y="312" type="line"/>
      <point x="459" y="401"/>
      <point x="447" y="444"/>
      <point x="407" y="444" type="curve" smooth="yes"/>
      <point x="372" y="444"/>
      <point x="353" y="411"/>
    </contour>
    <contour>
      <point x="186" y="80" type="curve" smooth="yes"/>
      <point x="209" y="80"/>
      <point x="231" y="92"/>
      <point x="250" y="114" type="curve"/>
      <point x="242" y="144"/>
      <point x="238" y="196"/>
      <point x="237" y="239" type="curve"/>
      <point x="222" y="248"/>
      <point x="208" y="252"/>
      <point x="183" y="252" type="curve" smooth="yes"/>
      <point x="150" y="252"/>
      <point x="134" y="225"/>
      <point x="134" y="165" type="curve" smooth="yes"/>
      <point x="134" y="103"/>
      <point x="150" y="80"/>
    </contour>
  </outline>
</glyph>
<glyph name="ccedilla" format="1">
  <advance width="600"/>
  <unicode hex="00E7"/>
  <outline>
    <contour>
      <point x="288" y="-9" type="line"/>
      <point x="160" y="7"/>
      <point x="70" y="104"/>
      <point x="70" y="264" type="curve" smooth="yes"/>
      <point x="70" y="428"/>
      <point x="174" y="536"/>
      <point x="332" y="536" type="curve" smooth="yes"/>
      <point x="421" y="536"/>
      <point x="482" y="503"/>
      <point x="532" y="444" type="curve"/>
      <point x="437" y="358" type="line"/>
      <point x="406" y="397"/>
      <point x="380" y="419"/>
      <point x="327" y="419" type="curve" smooth="yes"/>
      <point x="257" y="419"/>
      <point x="214" y="354"/>
      <point x="214" y="263" type="curve" smooth="yes"/>
      <point x="214" y="168"/>
      <point x="253" y="106"/>
      <point x="332" y="106" type="curve" smooth="yes"/>
      <point x="380" y="106"/>
      <point x="416" y="132"/>
      <point x="450" y="173" type="curve"/>
      <point x="535" y="91" type="line"/>
      <point x="487" y="33"/>
      <point x="426" y="-6"/>
      <point x="343" y="-11" type="curve"/>
      <point x="332" y="-45" type="line"/>
      <point x="344" y="-39"/>
      <point x="360" y="-34"/>
      <point x="379" y="-34" type="curve" smooth="yes"/>
      <point x="421" y="-34"/>
      <point x="453" y="-60"/>
      <point x="453" y="-106" type="curve" smooth="yes"/>
      <point x="453" y="-164"/>
      <point x="408" y="-193"/>
      <point x="339" y="-193" type="curve" smooth="yes"/>
      <point x="288" y="-193"/>
      <point x="241" y="-178"/>
      <point x="202" y="-157" type="curve"/>
      <point x="221" y="-116" type="line"/>
      <point x="255" y="-133"/>
      <point x="289" y="-141"/>
      <point x="319" y="-141" type="curve" smooth="yes"/>
      <point x="356" y="-141"/>
      <point x="373" y="-128"/>
      <point x="373" y="-108" type="curve" smooth="yes"/>
      <point x="373" y="-92"/>
      <point x="363" y="-82"/>
      <point x="347" y="-82" type="curve" smooth="yes"/>
      <point x="331" y="-82"/>
      <point x="319" y="-88"/>
      <point x="306" y="-97" type="curve"/>
      <point x="269" y="-75" type="line"/>
    </contour>
  </outline>
</glyph>
<glyph name="eth" format="1">
  <advance width="600"/>
  <unicode hex="00F0"/>
  <outline>
    <contour>
      <point x="299" y="-11" type="curve" smooth="yes"/>
      <point x="170" y="-11"/>
      <point x="56" y="73"/>
      <point x="56" y="230" type="curve" smooth="yes"/>
      <point x="56" y="389"/>
      <point x="165" y="466"/>
      <point x="266" y="466" type="curve" smooth="yes"/>
      <point x="341" y="466"/>
      <point x="386" y="444"/>
      <point x="418" y="408" type="curve"/>
      <point x="407" y="463"/>
      <point x="381" y="510"/>
      <point x="340" y="544" type="curve"/>
      <point x="341" y="544"/>
      <point x="295" y="495"/>
      <point x="295" y="495" type="curve"/>
      <point x="232" y="547" type="line"/>
      <point x="269" y="587" type="line"/>
      <point x="241" y="599"/>
      <point x="209" y="605"/>
      <point x="174" y="607" type="curve"/>
      <point x="174" y="711" type="line"/>
      <point x="240" y="710"/>
      <point x="298" y="695"/>
      <point x="347" y="670" type="curve"/>
      <point x="389" y="714" type="line"/>
      <point x="453" y="662" type="line"/>
      <point x="415" y="622" type="line"/>
      <point x="499" y="548"/>
      <point x="544" y="428"/>
      <point x="544" y="284" type="curve" smooth="yes"/>
      <point x="544" y="76"/>
      <point x="437" y="-11"/>
    </contour>
    <contour>
      <point x="299" y="104" type="curve" smooth="yes"/>
      <point x="358" y="104"/>
      <point x="402" y="142"/>
      <point x="402" y="231" type="curve" smooth="yes"/>
      <point x="402" y="321"/>
      <point x="358" y="356"/>
      <point x="298" y="356" type="curve" smooth="yes"/>
      <point x="237" y="356"/>
      <point x="197" y="319"/>
      <point x="197" y="231" type="curve" smooth="yes"/>
      <point x="197" y="141"/>
      <point x="241" y="104"/>
    </contour>
  </outline>
</glyph>
<glyph name="oslash" format="1">
  <advance width="600"/>
  <unicode hex="00F8"/>
  <outline>
    <contour>
      <point x="480" y="462" type="line"/>
      <point x="521" y="416"/>
      <point x="546" y="351"/>
      <point x="546" y="264" type="curve" smooth="yes"/>
      <point x="546" y="84"/>
      <point x="436" y="-11"/>
      <point x="299" y="-11" type="curve" smooth="yes"/>
      <point x="268" y="-11"/>
      <point x="238" y="-6"/>
      <point x="211" y="3" type="curve"/>
      <point x="211" y="4"/>
      <point x="180" y="-50"/>
      <point x="180" y="-50" type="curve"/>
      <point x="52" y="-50" type="line"/>
      <point x="119" y="65" type="line"/>
      <point x="79" y="111"/>
      <point x="54" y="177"/>
      <point x="54" y="263" type="curve" smooth="yes"/>
      <point x="54" y="445"/>
      <point x="163" y="536"/>
      <point x="300" y="536" type="curve" smooth="yes"/>
      <point x="331" y="536"/>
      <point x="360" y="531"/>
      <point x="387" y="522" type="curve"/>
      <point x="418" y="575" type="line"/>
      <point x="546" y="575" type="line"/>
    </contour>
    <contour>
      <point x="203" y="190" type="curve"/>
      <point x="338" y="422" type="line"/>
      <point x="327" y="427"/>
      <point x="314" y="429"/>
      <point x="300" y="429" type="curve" smooth="yes"/>
      <point x="235" y="429"/>
      <point x="196" y="377"/>
      <point x="196" y="263" type="curve" smooth="yes"/>
      <point x="196" y="235"/>
      <point x="198" y="211"/>
    </contour>
    <contour>
      <point x="397" y="338" type="curve"/>
      <point x="260" y="104" type="line"/>
      <point x="272" y="99"/>
      <point x="285" y="96"/>
      <point x="300" y="96" type="curve" smooth="yes"/>
      <point x="365" y="96"/>
      <point x="404" y="151"/>
      <point x="404" y="263" type="curve" smooth="yes"/>
      <point x="404" y="292"/>
      <point x="402" y="317"/>
    </contour>
  </outline>
</glyph>
<glyph name="dotlessi" format="1">
  <advance width="600"/>
  <unicode hex="0131"/>
  <outline>
    <contour>
      <point x="358" y="-11" type="curve" smooth="yes"/>
      <point x="256" y="-11"/>
      <point x="200" y="43"/>
      <point x="200" y="151" type="curve" smooth="yes"/>
      <point x="200" y="525" type="line"/>
      <point x="343" y="525" type="line"/>
      <point x="343" y="176" type="line" smooth="yes"/>
      <point x="343" y="126"/>
      <point x="369" y="111"/>
      <point x="408" y="111" type="curve" smooth="yes"/>
      <point x="447" y="111"/>
      <point x="478" y="121"/>
      <point x="503" y="131" type="curve"/>
      <point x="482" y="15" type="line"/>
      <point x="451" y="1"/>
      <point x="406" y="-11"/>
    </contour>
  </outline>
</glyph>
<glyph name="Lslash" format="1">
  <advance width="600"/>
  <unicode hex="0141"/>
  <outline>
    <contour>
      <point x="104" y="0" type="line"/>
      <point x="104" y="229" type="line"/>
      <point x="40" y="185" type="line"/>
      <point x="40" y="320" type="line"/>
      <point x="104" y="363" type="line"/>
      <point x="104" y="700" type="line"/>
      <point x="248" y="700" type="line"/>
      <point x="248" y="454" type="line"/>
      <point x="372" y="540" type="line"/>
      <point x="372" y="406" type="line"/>
      <point x="248" y="320" type="line"/>
      <point x="248" y="123" type="line"/>
      <point x="537" y="123" type="line"/>
      <point x="537" y="0" type="line"/>
    </contour>
  </outline>
</glyph>
<glyph name="lslash" format="1">
  <advance width="600"/>
  <unicode hex="0142"/>
  <outline>
    <contour>
      <point x="202" y="247" type="line"/>
      <point x="109" y="196" type="line"/>
      <point x="109" y="323" type="line"/>
      <point x="202" y="374" type="line"/>
      <point x="202" y="668" type="line"/>
      <point x="345" y="729" type="line"/>
      <point x="345" y="453" type="line"/>
      <point x="458" y="515" type="line"/>
      <point x="458" y="388" type="line"/>
      <point x="345" y="326" type="line"/>
      <point x="345" y="176" type="line" smooth="yes"/>
      <point x="345" y="126"/>
      <point x="371" y="111"/>
      <point x="409" y="111" type="curve" smooth="yes"/>
      <point x="449" y="111"/>
      <point x="479" y="121"/>
      <point x="505" y="131" type="curve"/>
      <point x="484" y="15" type="line"/>
      <point x="452" y="1"/>
      <point x="407" y="-11"/>
      <point x="359" y="-11" type="curve" smooth="yes"/>
      <point x="257" y="-11"/>
      <point x="202" y="43"/>
      <point x="202" y="151" type="curve" smooth="yes"/>
    </contour>
  </outline>
</glyph>
<glyph name="OE" format="1">
  <advance width="600"/>
  <unicode hex="0152"/>
  <outline>
    <contour>
      <point x="206" y="-11" type="curve" smooth="yes"/>
      <point x="90" y="-11"/>
      <point x="25" y="100"/>
      <point x="25" y="349" type="curve" smooth="yes"/>
      <point x="25" y="599"/>
      <point x="92" y="711"/>
      <point x="207" y="711" type="curve" smooth="yes"/>
      <point x="253" y="711"/>
      <point x="288" y="683"/>
      <point x="308" y="640" type="curve"/>
      <point x="308" y="700" type="line"/>
      <point x="571" y="700" type="line"/>
      <point x="571" y="586" type="line"/>
      <point x="402" y="586" type="line"/>
      <point x="402" y="425" type="line"/>
      <point x="525" y="425" type="line"/>
      <point x="525" y="311" type="line"/>
      <point x="402" y="311" type="line"/>
      <point x="402" y="114" type="line"/>
      <point x="579" y="114" type="line"/>
      <point x="579" y="0" type="line"/>
      <point x="308" y="0" type="line"/>
      <point x="308" y="61" type="line"/>
      <point x="287" y="16"/>
      <point x="257" y="-11"/>
    </contour>
    <contour>
      <point x="218" y="99" type="curve" smooth="yes"/>
      <point x="259" y="99"/>
      <point x="285" y="145"/>
      <point x="285" y="349" type="curve" smooth="yes"/>
      <point x="285" y="554"/>
      <point x="259" y="601"/>
      <point x="217" y="601" type="curve" smooth="yes"/>
      <point x="174" y="601"/>
      <point x="152" y="555"/>
      <point x="152" y="351" type="curve" smooth="yes"/>
      <point x="152" y="146"/>
      <point x="176" y="99"/>
    </contour>
  </outline>
</glyph>
<glyph name="oe" format="1">
  <advance width="600"/>
  <unicode hex="0153"/>
  <outline>
    <contour>
      <point x="189" y="-11" type="curve" smooth="yes"/>
      <point x="79" y="-11"/>
      <point x="18" y="82"/>
      <point x="18" y="261" type="curve" smooth="yes"/>
      <point x="18" y="438"/>
      <point x="74" y="536"/>
      <point x="191" y="536" type="curve" smooth="yes"/>
      <point x="249" y="536"/>
      <point x="286" y="503"/>
      <point x="306" y="460" type="curve"/>
      <point x="327" y="504"/>
      <point x="362" y="536"/>
      <point x="417" y="536" type="curve" smooth="yes"/>
      <point x="522" y="536"/>
      <point x="579" y="441"/>
      <point x="579" y="261" type="curve" smooth="yes"/>
      <point x="579" y="252"/>
      <point x="578" y="236"/>
      <point x="578" y="228" type="curve"/>
      <point x="359" y="228" type="line"/>
      <point x="362" y="127"/>
      <point x="380" y="85"/>
      <point x="418" y="85" type="curve" smooth="yes"/>
      <point x="449" y="85"/>
      <point x="462" y="103"/>
      <point x="487" y="151" type="curve"/>
      <point x="572" y="105" type="line"/>
      <point x="536" y="36"/>
      <point x="496" y="-11"/>
      <point x="415" y="-11" type="curve" smooth="yes"/>
      <point x="359" y="-11"/>
      <point x="322" y="23"/>
      <point x="302" y="66" type="curve"/>
      <point x="281" y="22"/>
      <point x="247" y="-11"/>
    </contour>
    <contour>
      <point x="359" y="311" type="curve"/>
      <point x="466" y="311" type="line"/>
      <point x="463" y="400"/>
      <point x="451" y="443"/>
      <point x="414" y="443" type="curve" smooth="yes"/>
      <point x="381" y="443"/>
      <point x="364" y="408"/>
    </contour>
    <contour>
      <point x="192" y="90" type="curve" smooth="yes"/>
      <point x="232" y="90"/>
      <point x="248" y="140"/>
      <point x="248" y="262" type="curve" smooth="yes"/>
      <point x="248" y="388"/>
      <point x="230" y="435"/>
      <point x="190" y="435" type="curve" smooth="yes"/>
      <point x="150" y="435"/>
      <point x="136" y="388"/>
      <point x="136" y="264" type="curve" smooth="yes"/>
      <point x="136" y="138"/>
      <point x="149" y="90"/>
    </contour>
  </outline>
</glyph>
<glyph name="florin" format="1">
  <advance width="600"/>
  <unicode hex="0192"/>
  <outline>
    <contour>
      <point x="91" y="-193" type="line"/>
      <point x="192" y="382" type="line"/>
      <point x="107" y="382" type="line"/>
      <point x="107" y="497" type="line"/>
      <point x="212" y="497" type="line"/>
      <point x="220" y="536" type="line" smooth="yes"/>
      <point x="245" y="658"/>
      <point x="315" y="711"/>
      <point x="423" y="711" type="curve" smooth="yes"/>
      <point x="485" y="711"/>
      <point x="517" y="699"/>
      <point x="540" y="688" type="curve"/>
      <point x="540" y="573" type="line"/>
      <point x="520" y="583"/>
      <point x="489" y="598"/>
      <point x="440" y="598" type="curve" smooth="yes"/>
      <point x="396" y="598"/>
      <point x="368" y="584"/>
      <point x="359" y="538" type="curve" smooth="yes"/>
      <point x="351" y="497" type="line"/>
      <point x="474" y="497" type="line"/>
      <point x="474" y="382" type="line"/>
      <point x="334" y="382" type="line"/>
      <point x="244" y="-131" type="line"/>
    </contour>
  </outline>
</glyph>
<glyph name="circumflex" format="1">
  <advance width="600"/>
  <unicode hex="02C6"/>
  <outline>
    <contour>
      <point x="111" y="595" type="line"/>
      <point x="239" y="755" type="line"/>
      <point x="361" y="755" type="line"/>
      <point x="489" y="595" type="line"/>
      <point x="388" y="595" type="line"/>
      <point x="299" y="673" type="line"/>
      <point x="210" y="595" type="line"/>
    </contour>
  </outline>
</glyph>
<glyph name="caron" format="1">
  <advance width="600"/>
  <unicode hex="02C7"/>
  <outline>
    <contour>
      <point x="239" y="595" type="line"/>
      <point x="111" y="755" type="line"/>
      <point x="212" y="755" type="line"/>
      <point x="301" y="677" type="line"/>
      <point x="390" y="755" type="line"/>
      <point x="489" y="755" type="line"/>
      <point x="361" y="595" type="line"/>
    </contour>
  </outline>
</glyph>
<glyph name="breve" format="1">
  <advance width="600"/>
  <unicode hex="02D8"/>
  <outline>
    <contour>
      <point x="299" y="595" type="curve" smooth="yes"/>
      <point x="191" y="595"/>
      <point x="131" y="653"/>
      <point x="115" y="755" type="curve"/>
      <point x="205" y="755" type="line"/>
      <point x="214" y="708"/>
      <point x="241" y="679"/>
      <point x="301" y="679" type="curve" smooth="yes"/>
      <point x="357" y="679"/>
      <point x="386" y="708"/>
      <point x="395" y="755" type="curve"/>
      <point x="485" y="755" type="line"/>
      <point x="469" y="653"/>
      <point x="411" y="595"/>
    </contour>
  </outline>
</glyph>
<glyph name="dotaccent" format="1">
  <advance width="600"/>
  <unicode hex="02D9"/>
  <outline>
    <contour>
      <point x="300" y="598" type="curve" smooth="yes"/>
      <point x="258" y="598"/>
      <point x="220" y="634"/>
      <point x="220" y="676" type="curve" smooth="yes"/>
      <point x="220" y="720"/>
      <point x="258" y="756"/>
      <point x="300" y="756" type="curve" smooth="yes"/>
      <point x="343" y="756"/>
      <point x="380" y="720"/>
      <point x="380" y="676" type="curve" smooth="yes"/>
      <point x="380" y="634"/>
      <point x="343" y="598"/>
    </contour>
  </outline>
</glyph>
<glyph name="ring" format="1">
  <advance width="600"/>
  <unicode hex="02DA"/>
  <outline>
    <contour>
      <point x="300" y="596" type="curve" smooth="yes"/>
      <point x="225" y="596"/>
      <point x="167" y="653"/>
      <point x="167" y="727" type="curve" smooth="yes"/>
      <point x="167" y="801"/>
      <point x="225" y="858"/>
      <point x="300" y="858" type="curve" smooth="yes"/>
      <point x="375" y="858"/>
      <point x="433" y="801"/>
      <point x="433" y="727" type="curve" smooth="yes"/>
      <point x="433" y="653"/>
      <point x="375" y="596"/>
    </contour>
    <contour>
      <point x="300" y="663" type="curve" smooth="yes"/>
      <point x="337" y="663"/>
      <point x="360" y="689"/>
      <point x="360" y="727" type="curve" smooth="yes"/>
      <point x="360" y="765"/>
      <point x="337" y="791"/>
      <point x="300" y="791" type="curve" smooth="yes"/>
      <point x="263" y="791"/>
      <point x="240" y="765"/>
      <point x="240" y="727" type="curve" smooth="yes"/>
      <point x="240" y="689"/>
      <point x="263" y="663"/>
    </contour>
  </outline>
</glyph>
<glyph name="ogonek" format="1">
  <advance width="600"/>
  <unicode hex="02DB"/>
  <outline>
    <contour>
      <point x="295" y="-193" type="curve" smooth="yes"/>
      <point x="234" y="-193"/>
      <point x="197" y="-160"/>
      <point x="197" y="-113" type="curve" smooth="yes"/>
      <point x="197" y="-71"/>
      <point x="229" y="-33"/>
      <point x="271" y="0" type="curve"/>
      <point x="329" y="0" type="line"/>
      <point x="297" y="-43"/>
      <point x="285" y="-68"/>
      <point x="285" y="-98" type="curve" smooth="yes"/>
      <point x="285" y="-118"/>
      <point x="301" y="-134"/>
      <point x="326" y="-134" type="curve" smooth="yes"/>
      <point x="352" y="-134"/>
      <point x="379" y="-128"/>
      <point x="414" y="-113" type="curve"/>
      <point x="430" y="-150" type="line"/>
      <point x="389" y="-176"/>
      <point x="342" y="-193"/>
    </contour>
  </outline>
</glyph>
<glyph name="tilde" format="1">
  <advance width="600"/>
  <unicode hex="02DC"/>
  <outline>
    <contour>
      <point x="379" y="594" type="curve" smooth="yes"/>
      <point x="346" y="594"/>
      <point x="324" y="601"/>
      <point x="296" y="619" type="curve" smooth="yes"/>
      <point x="259" y="643"/>
      <point x="245" y="654"/>
      <point x="228" y="654" type="curve" smooth="yes"/>
      <point x="207" y="654"/>
      <point x="196" y="638"/>
      <point x="190" y="597" type="curve"/>
      <point x="102" y="597" type="line"/>
      <point x="102" y="686"/>
      <point x="151" y="745"/>
      <point x="223" y="745" type="curve" smooth="yes"/>
      <point x="256" y="745"/>
      <point x="279" y="738"/>
      <point x="306" y="719" type="curve" smooth="yes"/>
      <point x="342" y="695"/>
      <point x="357" y="685"/>
      <point x="374" y="685" type="curve" smooth="yes"/>
      <point x="395" y="685"/>
      <point x="407" y="704"/>
      <point x="411" y="742" type="curve"/>
      <point x="500" y="742" type="line"/>
      <point x="500" y="653"/>
      <point x="451" y="594"/>
    </contour>
  </outline>
</glyph>
<glyph name="hungarumlaut" format="1">
  <advance width="600"/>
  <unicode hex="02DD"/>
  <outline>
    <contour>
      <point x="294" y="595" type="line"/>
      <point x="376" y="755" type="line"/>
      <point x="537" y="755" type="line"/>
      <point x="393" y="595" type="line"/>
    </contour>
    <contour>
      <point x="86" y="595" type="line"/>
      <point x="168" y="755" type="line"/>
      <point x="329" y="755" type="line"/>
      <point x="185" y="595" type="line"/>
    </contour>
  </outline>
</glyph>
<glyph name="endash" format="1">
  <advance width="600"/>
  <unicode hex="2013"/>
  <outline>
    <contour>
      <point x="87" y="296" type="line"/>
      <point x="87" y="425" type="line"/>
      <point x="513" y="425" type="line"/>
      <point x="513" y="296" type="line"/>
    </contour>
  </outline>
</glyph>
<glyph name="emdash" format="1">
  <advance width="600"/>
  <unicode hex="2014"/>
  <outline>
    <contour>
      <point x="27" y="296" type="line"/>
      <point x="27" y="425" type="line"/>
      <point x="573" y="425" type="line"/>
      <point x="573" y="296" type="line"/>
    </contour>
  </outline>
</glyph>
<glyph name="quoteleft" format="1">
  <advance width="600"/>
  <unicode hex="2018"/>
  <unicode hex="02BB"/>
  <outline>
    <contour>
      <point x="181" y="395" type="line"/>
      <point x="275" y="700" type="line"/>
      <point x="380" y="700" type="line"/>
      <point x="365" y="395" type="line"/>
    </contour>
  </outline>
</glyph>
<glyph name="quoteright" format="1">
  <advance width="600"/>
  <unicode hex="2019"/>
  <unicode hex="02BC"/>
  <outline>
    <contour>
      <point x="220" y="395" type="line"/>
      <point x="235" y="700" type="line"/>
      <point x="419" y="700" type="line"/>
      <point x="325" y="395" type="line"/>
    </contour>
  </outline>
</glyph>
<glyph name="quotesinglbase" format="1">
  <advance width="600"/>
  <unicode hex="201A"/>
  <outline>
    <contour>
      <point x="219" y="-118" type="line"/>
      <point x="234" y="182" type="line"/>
      <point x="417" y="182" type="line"/>
      <point x="323" y="-118" type="line"/>
    </contour>
  </outline>
</glyph>
<glyph name="quotedblleft" format="1">
  <advance width="600"/>
  <unicode hex="201C"/>
  <outline>
    <contour>
      <point x="319" y="395" type="line"/>
      <point x="408" y="700" type="line"/>
      <point x="505" y="700" type="line"/>
      <point x="486" y="395" type="line"/>
    </contour>
    <contour>
      <point x="68" y="395" type="line"/>
      <point x="157" y="700" type="line"/>
      <point x="254" y="700" type="line"/>
      <point x="236" y="395" type="line"/>
    </contour>
  </outline>
</glyph>
<glyph name="quotedblright" format="1">
  <advance width="600"/>
  <unicode hex="201D"/>
  <outline>
    <contour>
      <point x="346" y="395" type="line"/>
      <point x="364" y="700" type="line"/>
      <point x="532" y="700" type="line"/>
      <point x="443" y="395" type="line"/>
    </contour>
    <contour>
      <point x="95" y="395" type="line"/>
      <point x="114" y="700" type="line"/>
      <point x="281" y="700" type="line"/>
      <point x="192" y="395" type="line"/>
    </contour>
  </outline>
</glyph>
<glyph name="quotedblbase" format="1">
  <advance width="600"/>
  <unicode hex="201E"/>
  <outline>
    <contour>
      <point x="350" y="-118" type="line"/>
      <point x="368" y="180" type="line"/>
      <point x="536" y="180" type="line"/>
      <point x="447" y="-118" type="line"/>
    </contour>
    <contour>
      <point x="89" y="-118" type="line"/>
      <point x="107" y="180" type="line"/>
      <point x="275" y="180" type="line"/>
      <point x="186" y="-118" type="line"/>
    </contour>
  </outline>
</glyph>
<glyph name="dagger" format="1">
  <advance width="600"/>
  <unicode hex="2020"/>
  <outline>
    <contour>
      <point x="234" y="-100" type="line"/>
      <point x="234" y="373" type="line"/>
      <point x="67" y="373" type="line"/>
      <point x="67" y="496" type="line"/>
      <point x="234" y="496" type="line"/>
      <point x="234" y="700" type="line"/>
      <point x="366" y="700" type="line"/>
      <point x="366" y="496" type="line"/>
      <point x="533" y="496" type="line"/>
      <point x="533" y="373" type="line"/>
      <point x="366" y="373" type="line"/>
      <point x="366" y="-100" type="line"/>
    </contour>
  </outline>
</glyph>
<glyph name="daggerdbl" format="1">
  <advance width="600"/>
  <unicode hex="2021"/>
  <outline>
    <contour>
      <point x="234" y="-100" type="line"/>
      <point x="234" y="104" type="line"/>
      <point x="67" y="104" type="line"/>
      <point x="67" y="224" type="line"/>
      <point x="234" y="224" type="line"/>
      <point x="234" y="376" type="line"/>
      <point x="67" y="376" type="line"/>
      <point x="67" y="496" type="line"/>
      <point x="234" y="496" type="line"/>
      <point x="234" y="700" type="line"/>
      <point x="366" y="700" type="line"/>
      <point x="366" y="496" type="line"/>
      <point x="533" y="496" type="line"/>
      <point x="533" y="376" type="line"/>
      <point x="366" y="376" type="line"/>
      <point x="366" y="224" type="line"/>
      <point x="533" y="224" type="line"/>
      <point x="533" y="104" type="line"/>
      <point x="366" y="104" type="line"/>
      <point x="366" y="-100" type="line"/>
    </contour>
  </outline>
</glyph>
<glyph name="ellipsis" format="1">
  <advance width="600"/>
  <unicode hex="2026"/>
  <outline>
    <contour>
      <point x="497" y="-11" type="curve" smooth="yes"/>
      <point x="456" y="-11"/>
      <point x="427" y="18"/>
      <point x="427" y="74" type="curve" smooth="yes"/>
      <point x="427" y="130"/>
      <point x="456" y="160"/>
      <point x="497" y="160" type="curve" smooth="yes"/>
      <point x="540" y="160"/>
      <point x="568" y="130"/>
      <point x="568" y="74" type="curve" smooth="yes"/>
      <point x="568" y="18"/>
      <point x="540" y="-11"/>
    </contour>
    <contour>
      <point x="301" y="-11" type="curve" smooth="yes"/>
      <point x="259" y="-11"/>
      <point x="230" y="18"/>
      <point x="230" y="74" type="curve" smooth="yes"/>
      <point x="230" y="130"/>
      <point x="259" y="160"/>
      <point x="301" y="160" type="curve" smooth="yes"/>
      <point x="343" y="160"/>
      <point x="371" y="130"/>
      <point x="371" y="74" type="curve" smooth="yes"/>
      <point x="371" y="18"/>
      <point x="343" y="-11"/>
    </contour>
    <contour>
      <point x="104" y="-11" type="curve" smooth="yes"/>
      <point x="62" y="-11"/>
      <point x="33" y="18"/>
      <point x="33" y="74" type="curve" smooth="yes"/>
      <point x="33" y="130"/>
      <point x="62" y="160"/>
      <point x="104" y="160" type="curve" smooth="yes"/>
      <point x="146" y="160"/>
      <point x="174" y="130"/>
      <point x="174" y="74" type="curve" smooth="yes"/>
      <point x="174" y="18"/>
      <point x="146" y="-11"/>
    </contour>
  </outline>
</glyph>
<glyph name="perthousand" format="1">
  <advance width="600"/>
  <unicode hex="2030"/>
  <outline>
    <contour>
      <point x="89" y="296" type="curve" smooth="yes"/>
      <point x="27" y="296"/>
      <point x="4" y="373"/>
      <point x="4" y="503" type="curve" smooth="yes"/>
      <point x="4" y="633"/>
      <point x="26" y="711"/>
      <point x="88" y="711" type="curve" smooth="yes"/>
      <point x="150" y="711"/>
      <point x="173" y="634"/>
      <point x="173" y="504" type="curve" smooth="yes"/>
      <point x="173" y="374"/>
      <point x="151" y="296"/>
    </contour>
    <contour>
      <point x="69" y="0" type="line"/>
      <point x="289" y="700" type="line"/>
      <point x="341" y="700" type="line"/>
      <point x="121" y="0" type="line"/>
    </contour>
    <contour>
      <point x="512" y="-11" type="curve" smooth="yes"/>
      <point x="450" y="-11"/>
      <point x="427" y="66"/>
      <point x="427" y="196" type="curve" smooth="yes"/>
      <point x="427" y="326"/>
      <point x="449" y="404"/>
      <point x="511" y="404" type="curve" smooth="yes"/>
      <point x="572" y="404"/>
      <point x="596" y="327"/>
      <point x="596" y="197" type="curve" smooth="yes"/>
      <point x="596" y="67"/>
      <point x="574" y="-11"/>
    </contour>
    <contour>
      <point x="321" y="-11" type="curve" smooth="yes"/>
      <point x="259" y="-11"/>
      <point x="236" y="66"/>
      <point x="236" y="196" type="curve" smooth="yes"/>
      <point x="236" y="326"/>
      <point x="258" y="404"/>
      <point x="319" y="404" type="curve" smooth="yes"/>
      <point x="381" y="404"/>
      <point x="404" y="327"/>
      <point x="404" y="197" type="curve" smooth="yes"/>
      <point x="404" y="67"/>
      <point x="383" y="-11"/>
    </contour>
    <contour>
      <point x="89" y="354" type="curve" smooth="yes"/>
      <point x="106" y="354"/>
      <point x="111" y="387"/>
      <point x="111" y="504" type="curve" smooth="yes"/>
      <point x="111" y="620"/>
      <point x="106" y="652"/>
      <point x="88" y="652" type="curve" smooth="yes"/>
      <point x="71" y="652"/>
      <point x="66" y="620"/>
      <point x="66" y="503" type="curve" smooth="yes"/>
      <point x="66" y="387"/>
      <point x="72" y="354"/>
    </contour>
    <contour>
      <point x="511" y="47" type="curve" smooth="yes"/>
      <point x="528" y="47"/>
      <point x="534" y="80"/>
      <point x="534" y="197" type="curve" smooth="yes"/>
      <point x="534" y="314"/>
      <point x="528" y="346"/>
      <point x="511" y="346" type="curve" smooth="yes"/>
      <point x="494" y="346"/>
      <point x="489" y="313"/>
      <point x="489" y="197" type="curve" smooth="yes"/>
      <point x="489" y="80"/>
      <point x="495" y="47"/>
    </contour>
    <contour>
      <point x="320" y="47" type="curve" smooth="yes"/>
      <point x="337" y="47"/>
      <point x="343" y="80"/>
      <point x="343" y="197" type="curve" smooth="yes"/>
      <point x="343" y="314"/>
      <point x="337" y="346"/>
      <point x="320" y="346" type="curve" smooth="yes"/>
      <point x="303" y="346"/>
      <point x="297" y="313"/>
      <point x="297" y="197" type="curve" smooth="yes"/>
      <point x="297" y="80"/>
      <point x="304" y="47"/>
    </contour>
  </outline>
</glyph>
<glyph name="guilsinglleft" format="1">
  <advance width="600"/>
  <unicode hex="2039"/>
  <outline>
    <contour>
      <point x="307" y="0" type="line"/>
      <point x="129" y="262" type="line"/>
      <point x="307" y="525" type="line"/>
      <point x="463" y="525" type="line"/>
      <point x="280" y="263" type="line"/>
      <point x="463" y="0" type="line"/>
    </contour>
  </outline>
</glyph>
<glyph name="guilsinglright" format="1">
  <advance width="600"/>
  <unicode hex="203A"/>
  <outline>
    <contour>
      <point x="137" y="0" type="line"/>
      <point x="320" y="262" type="line"/>
      <point x="137" y="525" type="line"/>
      <point x="293" y="525" type="line"/>
      <point x="471" y="263" type="line"/>
      <point x="293" y="0" type="line"/>
    </contour>
  </outline>
</glyph>
<glyph name="fraction" format="1">
  <advance width="600"/>
  <unicode hex="2044"/>
  <outline>
    <contour>
      <point x="33" y="0" type="line"/>
      <point x="438" y="700" type="line"/>
      <point x="567" y="700" type="line"/>
      <point x="162" y="0" type="line"/>
    </contour>
  </outline>
</glyph>
<glyph name="Euro" format="1">
  <advance width="600"/>
  <unicode hex="20AC"/>
  <outline>
    <contour>
      <point x="340" y="-11" type="curve" smooth="yes"/>
      <point x="201" y="-11"/>
      <point x="117" y="78"/>
      <point x="92" y="236" type="curve"/>
      <point x="24" y="236" type="line"/>
      <point x="24" y="319" type="line"/>
      <point x="83" y="319" type="line"/>
      <point x="83" y="329"/>
      <point x="83" y="339"/>
      <point x="83" y="349" type="curve" smooth="yes"/>
      <point x="83" y="360"/>
      <point x="83" y="371"/>
      <point x="83" y="381" type="curve"/>
      <point x="24" y="381" type="line"/>
      <point x="24" y="464" type="line"/>
      <point x="91" y="464" type="line"/>
      <point x="120" y="626"/>
      <point x="209" y="711"/>
      <point x="343" y="711" type="curve" smooth="yes"/>
      <point x="465" y="711"/>
      <point x="522" y="654"/>
      <point x="563" y="553" type="curve"/>
      <point x="447" y="502" type="line"/>
      <point x="421" y="575"/>
      <point x="395" y="596"/>
      <point x="340" y="596" type="curve" smooth="yes"/>
      <point x="285" y="596"/>
      <point x="243" y="560"/>
      <point x="228" y="464" type="curve"/>
      <point x="400" y="464" type="line"/>
      <point x="400" y="381" type="line"/>
      <point x="220" y="381" type="line"/>
      <point x="220" y="371"/>
      <point x="220" y="361"/>
      <point x="220" y="351" type="curve" smooth="yes"/>
      <point x="220" y="340"/>
      <point x="220" y="329"/>
      <point x="220" y="319" type="curve"/>
      <point x="400" y="319" type="line"/>
      <point x="400" y="236" type="line"/>
      <point x="228" y="236" type="line"/>
      <point x="245" y="131"/>
      <point x="294" y="104"/>
      <point x="342" y="104" type="curve" smooth="yes"/>
      <point x="395" y="104"/>
      <point x="423" y="132"/>
      <point x="453" y="197" type="curve"/>
      <point x="564" y="139" type="line"/>
      <point x="520" y="54"/>
      <point x="459" y="-11"/>
    </contour>
  </outline>
</glyph>
<glyph name="uni2117" format="1">
  <advance width="600"/>
  <unicode hex="2117"/>
  <outline>
    <contour>
      <point x="299" y="-11" type="curve" smooth="yes"/>
      <point x="138" y="-11"/>
      <point x="38" y="138"/>
      <point x="38" y="350" type="curve" smooth="yes"/>
      <point x="38" y="562"/>
      <point x="138" y="711"/>
      <point x="299" y="711" type="curve" smooth="yes"/>
      <point x="462" y="711"/>
      <point x="562" y="562"/>
      <point x="562" y="350" type="curve" smooth="yes"/>
      <point x="562" y="138"/>
      <point x="462" y="-11"/>
    </contour>
    <contour>
      <point x="299" y="44" type="curve" smooth="yes"/>
      <point x="431" y="44"/>
      <point x="502" y="170"/>
      <point x="502" y="350" type="curve" smooth="yes"/>
      <point x="502" y="530"/>
      <point x="431" y="656"/>
      <point x="299" y="656" type="curve" smooth="yes"/>
      <point x="168" y="656"/>
      <point x="98" y="530"/>
      <point x="98" y="350" type="curve" smooth="yes"/>
      <point x="98" y="170"/>
      <point x="168" y="44"/>
    </contour>
    <contour>
      <point x="206" y="152" type="line"/>
      <point x="206" y="547" type="line"/>
      <point x="315" y="547" type="line" smooth="yes"/>
      <point x="378" y="547"/>
      <point x="426" y="515"/>
      <point x="426" y="430" type="curve" smooth="yes"/>
      <point x="426" y="342"/>
      <point x="375" y="306"/>
      <point x="310" y="306" type="curve" smooth="yes"/>
      <point x="281" y="306" type="line"/>
      <point x="281" y="152" type="line"/>
    </contour>
    <contour>
      <point x="281" y="369" type="line"/>
      <point x="309" y="369" type="line" smooth="yes"/>
      <point x="338" y="369"/>
      <point x="351" y="387"/>
      <point x="351" y="428" type="curve" smooth="yes"/>
      <point x="351" y="469"/>
      <point x="339" y="484"/>
      <point x="309" y="484" type="curve" smooth="yes"/>
      <point x="281" y="484" type="line"/>
    </contour>
  </outline>
</glyph>
<glyph name="trademark" format="1">
  <advance width="600"/>
  <unicode hex="2122"/>
  <outline>
    <contour>
      <point x="92" y="303" type="line"/>
      <point x="92" y="635" type="line"/>
      <point x="15" y="635" type="line"/>
      <point x="15" y="700" type="line"/>
      <point x="241" y="700" type="line"/>
      <point x="241" y="635" type="line"/>
      <point x="165" y="635" type="line"/>
      <point x="165" y="303" type="line"/>
    </contour>
    <contour>
      <point x="429" y="293" type="line"/>
      <point x="382" y="437" type="line" smooth="yes"/>
      <point x="372" y="469"/>
      <point x="360" y="514"/>
      <point x="353" y="539" type="curve"/>
      <point x="354" y="514"/>
      <point x="355" y="474"/>
      <point x="355" y="441" type="curve" smooth="yes"/>
      <point x="355" y="303" type="line"/>
      <point x="288" y="303" type="line"/>
      <point x="288" y="700" type="line"/>
      <point x="358" y="700" type="line"/>
      <point x="401" y="565" type="line" smooth="yes"/>
      <point x="414" y="525"/>
      <point x="424" y="480"/>
      <point x="430" y="454" type="curve"/>
      <point x="435" y="480"/>
      <point x="445" y="525"/>
      <point x="458" y="566" type="curve" smooth="yes"/>
      <point x="500" y="700" type="line"/>
      <point x="570" y="700" type="line"/>
      <point x="570" y="303" type="line"/>
      <point x="502" y="303" type="line"/>
      <point x="502" y="441" type="line" smooth="yes"/>
      <point x="502" y="474"/>
      <point x="503" y="514"/>
      <point x="504" y="540" type="curve"/>
      <point x="498" y="514"/>
      <point x="485" y="469"/>
      <point x="475" y="437" type="curve" smooth="yes"/>
    </contour>
  </outline>
</glyph>
<glyph name="arrowleft" format="1">
  <advance width="600"/>
  <unicode hex="2190"/>
  <outline>
    <contour>
      <point x="236" y="204" type="curve" smooth="yes"/>
      <point x="228" y="198"/>
      <point x="216" y="199"/>
      <point x="203" y="210" type="curve" smooth="yes"/>
      <point x="28" y="351" type="line"/>
      <point x="203" y="492" type="line" smooth="yes"/>
      <point x="216" y="503"/>
      <point x="228" y="503"/>
      <point x="236" y="498" type="curve"/>
      <point x="245" y="490"/>
      <point x="248" y="482"/>
      <point x="243" y="464" type="curve" smooth="yes"/>
      <point x="228" y="411" type="line"/>
      <point x="545" y="411" type="line"/>
      <point x="545" y="291" type="line"/>
      <point x="228" y="291" type="line"/>
      <point x="243" y="238" type="line" smooth="yes"/>
      <point x="248" y="220"/>
      <point x="245" y="212"/>
    </contour>
  </outline>
</glyph>
<glyph name="arrowup" format="1">
  <advance width="600"/>
  <unicode hex="2191"/>
  <outline>
    <contour>
      <point x="229" y="0" type="line"/>
      <point x="229" y="486" type="line"/>
      <point x="166" y="468" type="line"/>
      <point x="145" y="464"/>
      <point x="136" y="466"/>
      <point x="127" y="478" type="curve" smooth="yes"/>
      <point x="120" y="487"/>
      <point x="122" y="501"/>
      <point x="133" y="515" type="curve" smooth="yes"/>
      <point x="300" y="725" type="line"/>
      <point x="467" y="515" type="line" smooth="yes"/>
      <point x="478" y="501"/>
      <point x="480" y="487"/>
      <point x="473" y="478" type="curve" smooth="yes"/>
      <point x="464" y="466"/>
      <point x="454" y="462"/>
      <point x="434" y="468" type="curve" smooth="yes"/>
      <point x="371" y="486" type="line"/>
      <point x="371" y="0" type="line"/>
    </contour>
  </outline>
</glyph>
<glyph name="arrowright" format="1">
  <advance width="600"/>
  <unicode hex="2192"/>
  <outline>
    <contour>
      <point x="364" y="204" type="curve" smooth="yes"/>
      <point x="354" y="212"/>
      <point x="351" y="220"/>
      <point x="356" y="238" type="curve" smooth="yes"/>
      <point x="372" y="291" type="line"/>
      <point x="55" y="291" type="line"/>
      <point x="55" y="411" type="line"/>
      <point x="372" y="411" type="line"/>
      <point x="356" y="464" type="line" smooth="yes"/>
      <point x="351" y="482"/>
      <point x="354" y="490"/>
      <point x="364" y="498" type="curve"/>
      <point x="372" y="503"/>
      <point x="383" y="502"/>
      <point x="396" y="492" type="curve" smooth="yes"/>
      <point x="571" y="351" type="line"/>
      <point x="396" y="210" type="line" smooth="yes"/>
      <point x="383" y="200"/>
      <point x="372" y="198"/>
    </contour>
  </outline>
</glyph>
<glyph name="arrowdown" format="1">
  <advance width="600"/>
  <unicode hex="2193"/>
  <outline>
    <contour>
      <point x="300" y="-25" type="line"/>
      <point x="133" y="185" type="line" smooth="yes"/>
      <point x="122" y="199"/>
      <point x="120" y="213"/>
      <point x="127" y="222" type="curve" smooth="yes"/>
      <point x="136" y="234"/>
      <point x="145" y="236"/>
      <point x="166" y="232" type="curve"/>
      <point x="229" y="214" type="line"/>
      <point x="229" y="700" type="line"/>
      <point x="371" y="700" type="line"/>
      <point x="371" y="214" type="line"/>
      <point x="434" y="232" type="line" smooth="yes"/>
      <point x="454" y="238"/>
      <point x="464" y="234"/>
      <point x="473" y="222" type="curve" smooth="yes"/>
      <point x="480" y="213"/>
      <point x="478" y="199"/>
      <point x="467" y="185" type="curve" smooth="yes"/>
    </contour>
  </outline>
</glyph>
<glyph name="arrowboth" format="1">
  <advance width="600"/>
  <unicode hex="2194"/>
  <outline>
    <contour>
      <point x="203" y="224" type="curve"/>
      <point x="195" y="220"/>
      <point x="186" y="219"/>
      <point x="175" y="228" type="curve" smooth="yes"/>
      <point x="24" y="351" type="line"/>
      <point x="175" y="473" type="line" smooth="yes"/>
      <point x="186" y="482"/>
      <point x="195" y="482"/>
      <point x="203" y="478" type="curve"/>
      <point x="211" y="471"/>
      <point x="212" y="464"/>
      <point x="208" y="448" type="curve" smooth="yes"/>
      <point x="195" y="402" type="line"/>
      <point x="405" y="402" type="line"/>
      <point x="390" y="448" type="line" smooth="yes"/>
      <point x="385" y="464"/>
      <point x="388" y="471"/>
      <point x="397" y="478" type="curve"/>
      <point x="404" y="482"/>
      <point x="415" y="481"/>
      <point x="425" y="473" type="curve" smooth="yes"/>
      <point x="575" y="351" type="line"/>
      <point x="425" y="228" type="line" smooth="yes"/>
      <point x="415" y="220"/>
      <point x="404" y="220"/>
      <point x="397" y="224" type="curve" smooth="yes"/>
      <point x="388" y="230"/>
      <point x="385" y="238"/>
      <point x="390" y="254" type="curve" smooth="yes"/>
      <point x="405" y="300" type="line"/>
      <point x="195" y="300" type="line"/>
      <point x="208" y="254" type="line" smooth="yes"/>
      <point x="212" y="238"/>
      <point x="211" y="230"/>
    </contour>
  </outline>
</glyph>
<glyph name="arrowupdn" format="1">
  <advance width="600"/>
  <unicode hex="2195"/>
  <outline>
    <contour>
      <point x="300" y="-25" type="line"/>
      <point x="133" y="185" type="line" smooth="yes"/>
      <point x="122" y="199"/>
      <point x="120" y="213"/>
      <point x="127" y="222" type="curve" smooth="yes"/>
      <point x="136" y="234"/>
      <point x="145" y="236"/>
      <point x="166" y="232" type="curve"/>
      <point x="229" y="214" type="line"/>
      <point x="229" y="486" type="line"/>
      <point x="166" y="468" type="line"/>
      <point x="145" y="464"/>
      <point x="136" y="466"/>
      <point x="127" y="478" type="curve" smooth="yes"/>
      <point x="120" y="487"/>
      <point x="122" y="501"/>
      <point x="133" y="515" type="curve" smooth="yes"/>
      <point x="300" y="725" type="line"/>
      <point x="467" y="515" type="line" smooth="yes"/>
      <point x="478" y="501"/>
      <point x="480" y="487"/>
      <point x="473" y="478" type="curve" smooth="yes"/>
      <point x="464" y="466"/>
      <point x="454" y="462"/>
      <point x="434" y="468" type="curve" smooth="yes"/>
      <point x="371" y="486" type="line"/>
      <point x="371" y="214" type="line"/>
      <point x="434" y="232" type="line" smooth="yes"/>
      <point x="454" y="238"/>
      <point x="464" y="234"/>
      <point x="473" y="222" type="curve" smooth="yes"/>
      <point x="480" y="213"/>
      <point x="478" y="199"/>
      <point x="467" y="185" type="curve" smooth="yes"/>
    </contour>
  </outline>
</glyph>
<glyph name="radical" format="1">
  <advance width="600"/>
  <unicode hex="221A"/>
  <outline>
    <contour>
      <point x="190" y="0" type="line"/>
      <point x="39" y="340" type="line"/>
      <point x="179" y="340" type="line"/>
      <point x="209" y="266" type="line" smooth="yes"/>
      <point x="227" y="221"/>
      <point x="246" y="161"/>
      <point x="255" y="119" type="curve"/>
      <point x="262" y="161"/>
      <point x="279" y="229"/>
      <point x="293" y="278" type="curve" smooth="yes"/>
      <point x="416" y="700" type="line"/>
      <point x="556" y="700" type="line"/>
      <point x="329" y="0" type="line"/>
    </contour>
  </outline>
</glyph>
<glyph name="apple" format="1">
  <advance width="600"/>
  <unicode hex="F8FF"/>
  <outline>
    <contour>
      <point x="299" y="-21" type="line"/>
      <point x="181" y="124" type="line" smooth="yes"/>
      <point x="172" y="135"/>
      <point x="171" y="144"/>
      <point x="175" y="151" type="curve"/>
      <point x="182" y="159"/>
      <point x="188" y="161"/>
      <point x="205" y="156" type="curve" smooth="yes"/>
      <point x="252" y="141" type="line"/>
      <point x="252" y="304" type="line"/>
      <point x="185" y="304" type="line"/>
      <point x="201" y="257" type="line"/>
      <point x="204" y="240"/>
      <point x="203" y="234"/>
      <point x="194" y="228" type="curve" smooth="yes"/>
      <point x="186" y="223"/>
      <point x="179" y="224"/>
      <point x="167" y="233" type="curve" smooth="yes"/>
      <point x="22" y="351" type="line"/>
      <point x="167" y="468" type="line" smooth="yes"/>
      <point x="180" y="478"/>
      <point x="186" y="479"/>
      <point x="194" y="474" type="curve" smooth="yes"/>
      <point x="203" y="468"/>
      <point x="204" y="461"/>
      <point x="201" y="445" type="curve"/>
      <point x="185" y="397" type="line"/>
      <point x="252" y="397" type="line"/>
      <point x="252" y="559" type="line"/>
      <point x="205" y="544" type="line" smooth="yes"/>
      <point x="188" y="539"/>
      <point x="182" y="542"/>
      <point x="175" y="549" type="curve"/>
      <point x="171" y="557"/>
      <point x="173" y="566"/>
      <point x="181" y="576" type="curve" smooth="yes"/>
      <point x="299" y="721" type="line"/>
      <point x="419" y="576" type="line" smooth="yes"/>
      <point x="427" y="567"/>
      <point x="427" y="557"/>
      <point x="424" y="549" type="curve"/>
      <point x="418" y="542"/>
      <point x="410" y="541"/>
      <point x="395" y="544" type="curve"/>
      <point x="346" y="559" type="line"/>
      <point x="346" y="397" type="line"/>
      <point x="413" y="397" type="line"/>
      <point x="399" y="445" type="line" smooth="yes"/>
      <point x="394" y="461"/>
      <point x="397" y="468"/>
      <point x="404" y="474" type="curve"/>
      <point x="412" y="479"/>
      <point x="420" y="477"/>
      <point x="431" y="468" type="curve" smooth="yes"/>
      <point x="576" y="351" type="line"/>
      <point x="431" y="233" type="line" smooth="yes"/>
      <point x="421" y="225"/>
      <point x="412" y="223"/>
      <point x="404" y="228" type="curve"/>
      <point x="397" y="234"/>
      <point x="394" y="241"/>
      <point x="399" y="257" type="curve" smooth="yes"/>
      <point x="413" y="304" type="line"/>
      <point x="346" y="304" type="line"/>
      <point x="346" y="141" type="line"/>
      <point x="395" y="156" type="line"/>
      <point x="410" y="159"/>
      <point x="418" y="158"/>
      <point x="424" y="151" type="curve"/>
      <point x="427" y="143"/>
      <point x="427" y="133"/>
      <point x="419" y="124" type="curve" smooth="yes"/>
    </contour>
  </outline>
</glyph>
<glyph name="fl" format="1">
  <advance width="600"/>
  <unicode hex="FB02"/>
  <outline>
    <contour>
      <point x="401" y="0" type="line"/>
      <point x="401" y="673" type="line"/>
      <point x="531" y="729" type="line"/>
      <point x="531" y="0" type="line"/>
    </contour>
    <contour>
      <point x="98" y="0" type="line"/>
      <point x="98" y="418" type="line"/>
      <point x="41" y="418" type="line"/>
      <point x="41" y="525" type="line"/>
      <point x="98" y="525" type="line"/>
      <point x="98" y="591" type="line" smooth="yes"/>
      <point x="98" y="687"/>
      <point x="148" y="726"/>
      <point x="229" y="726" type="curve" smooth="yes"/>
      <point x="268" y="726"/>
      <point x="296" y="721"/>
      <point x="317" y="712" type="curve"/>
      <point x="317" y="614" type="line"/>
      <point x="302" y="620"/>
      <point x="285" y="624"/>
      <point x="266" y="624" type="curve" smooth="yes"/>
      <point x="239" y="624"/>
      <point x="225" y="613"/>
      <point x="225" y="582" type="curve" smooth="yes"/>
      <point x="225" y="525" type="line"/>
      <point x="307" y="525" type="line"/>
      <point x="307" y="418" type="line"/>
      <point x="226" y="418" type="line"/>
      <point x="226" y="0" type="line"/>
    </contour>
  </outline>
</glyph>
<glyph name="a.salt" format="1">
  <advance width="600"/>
  <outline>
    <contour>
      <point x="240" y="-11" type="curve" smooth="yes"/>
      <point x="140" y="-11"/>
      <point x="56" y="67"/>
      <point x="56" y="259" type="curve" smooth="yes"/>
      <point x="56" y="446"/>
      <point x="135" y="536"/>
      <point x="247" y="536" type="curve" smooth="yes"/>
      <point x="306" y="536"/>
      <point x="345" y="511"/>
      <point x="377" y="482" type="curve"/>
      <point x="377" y="525" type="line"/>
      <point x="519" y="525" type="line"/>
      <point x="519" y="0" type="line"/>
      <point x="377" y="0" type="line"/>
      <point x="377" y="48" type="line"/>
      <point x="342" y="15"/>
      <point x="301" y="-11"/>
    </contour>
    <contour>
      <point x="286" y="109" type="curve" smooth="yes"/>
      <point x="323" y="109"/>
      <point x="353" y="126"/>
      <point x="377" y="152" type="curve"/>
      <point x="377" y="372" type="line"/>
      <point x="355" y="398"/>
      <point x="324" y="416"/>
      <point x="284" y="416" type="curve" smooth="yes"/>
      <point x="229" y="416"/>
      <point x="200" y="375"/>
      <point x="200" y="263" type="curve" smooth="yes"/>
      <point x="200" y="144"/>
      <point x="231" y="109"/>
    </contour>
  </outline>
</glyph>
<glyph name="bullet" format="1">
  <advance width="600"/>
  <outline>
    <contour>
      <point x="299" y="167" type="curve" smooth="yes"/>
      <point x="187" y="167"/>
      <point x="100" y="254"/>
      <point x="100" y="366" type="curve" smooth="yes"/>
      <point x="100" y="478"/>
      <point x="187" y="568"/>
      <point x="299" y="568" type="curve" smooth="yes"/>
      <point x="413" y="568"/>
      <point x="500" y="478"/>
      <point x="500" y="366" type="curve" smooth="yes"/>
      <point x="500" y="254"/>
      <point x="413" y="167"/>
    </contour>
  </outline>
</glyph>
<glyph name="macron" format="1">
  <advance width="600"/>
  <outline>
    <contour>
      <point x="146" y="613" type="line"/>
      <point x="146" y="712" type="line"/>
      <point x="454" y="712" type="line"/>
      <point x="454" y="613" type="line"/>
    </contour>
  </outline>
</glyph>
<glyph name="registered" format="1">
  <advance width="600"/>
  <outline>
    <contour>
      <point x="299" y="-11" type="curve" smooth="yes"/>
      <point x="138" y="-11"/>
      <point x="38" y="138"/>
      <point x="38" y="350" type="curve" smooth="yes"/>
      <point x="38" y="562"/>
      <point x="138" y="711"/>
      <point x="299" y="711" type="curve" smooth="yes"/>
      <point x="462" y="711"/>
      <point x="562" y="562"/>
      <point x="562" y="350" type="curve" smooth="yes"/>
      <point x="562" y="138"/>
      <point x="462" y="-11"/>
    </contour>
    <contour>
      <point x="299" y="44" type="curve" smooth="yes"/>
      <point x="431" y="44"/>
      <point x="502" y="170"/>
      <point x="502" y="350" type="curve" smooth="yes"/>
      <point x="502" y="530"/>
      <point x="431" y="656"/>
      <point x="299" y="656" type="curve" smooth="yes"/>
      <point x="168" y="656"/>
      <point x="98" y="530"/>
      <point x="98" y="350" type="curve" smooth="yes"/>
      <point x="98" y="170"/>
      <point x="168" y="44"/>
    </contour>
    <contour>
      <point x="197" y="161" type="line"/>
      <point x="197" y="556" type="line"/>
      <point x="310" y="556" type="line" smooth="yes"/>
      <point x="373" y="556"/>
      <point x="420" y="524"/>
      <point x="420" y="443" type="curve" smooth="yes"/>
      <point x="420" y="393"/>
      <point x="401" y="361"/>
      <point x="371" y="342" type="curve"/>
      <point x="424" y="161" type="line"/>
      <point x="344" y="161" type="line"/>
      <point x="298" y="325" type="line"/>
      <point x="297" y="324"/>
      <point x="275" y="324"/>
      <point x="272" y="324" type="curve"/>
      <point x="272" y="161" type="line"/>
    </contour>
    <contour>
      <point x="272" y="385" type="line"/>
      <point x="302" y="385" type="line" smooth="yes"/>
      <point x="332" y="385"/>
      <point x="344" y="403"/>
      <point x="344" y="441" type="curve" smooth="yes"/>
      <point x="344" y="478"/>
      <point x="332" y="494"/>
      <point x="304" y="494" type="curve" smooth="yes"/>
      <point x="272" y="494" type="line"/>
    </contour>
  </outline>
</glyph>
